<svg xmlns="http://www.w3.org/2000/svg" xmlns:xlink="http://www.w3.org/1999/xlink" contentStyleType="text/css" height="975px" preserveAspectRatio="none" style="width:1018px;height:975px;background:#FFFFFF;" version="1.1" viewBox="0 0 1018 975" width="1018px" zoomAndPan="magnify"><defs/><g><rect fill="#FFFFFF" height="768.2896" style="stroke:#000000;stroke-width:1.0;" width="10" x="180" y="114.814"/><rect fill="#FFFFFF" height="738.4902" style="stroke:#000000;stroke-width:1.0;" width="10" x="490" y="144.6133"/><rect fill="#FFFFFF" height="89.3979" style="stroke:#000000;stroke-width:1.0;" width="10" x="734" y="284.8105"/><rect fill="#FFFFFF" height="89.3979" style="stroke:#000000;stroke-width:1.0;" width="10" x="734" y="496.5737"/><rect fill="#FFFFFF" height="89.3979" style="stroke:#000000;stroke-width:1.0;" width="10" x="734" y="660.939"/><rect fill="#FFFFFF" height="29.7993" style="stroke:#000000;stroke-width:1.0;" width="10" x="936" y="314.6099"/><rect fill="#FFFFFF" height="29.7993" style="stroke:#000000;stroke-width:1.0;" width="10" x="936" y="526.373"/><rect fill="#FFFFFF" height="29.7993" style="stroke:#000000;stroke-width:1.0;" width="10" x="936" y="690.7383"/><rect fill="#FFFFFF" height="630.8916" rx="10" ry="10" style="stroke:#000000;stroke-width:1.0;" width="996.5" x="15" y="245.2119"/><path d="M15,412.0078 L1011.5,412.0078 L1011.5,613.771 A10,10 0 0 1 1001.5,623.771 L25,623.771 A10,10 0 0 1 15,613.771 L15,412.0078 " fill="#FFFFFF" style="stroke:none;stroke-width:1.0;"/><path d="M15,623.771 L1011.5,623.771 L1011.5,778.1362 A10,10 0 0 1 1001.5,788.1362 L25,788.1362 A10,10 0 0 1 15,778.1362 L15,623.771 " fill="#FFFFFF" style="stroke:none;stroke-width:1.0;"/><path d="M15,788.1362 L1011.5,788.1362 L1011.5,866.1035 A10,10 0 0 1 1001.5,876.1035 L25,876.1035 A10,10 0 0 1 15,866.1035 L15,788.1362 " fill="#FFFFFF" style="stroke:none;stroke-width:1.0;"/><line style="stroke:#000000;stroke-width:1.0;" x1="44" x2="44" y1="83.0146" y2="893.1035"/><line style="stroke:#000000;stroke-width:1.0;" x1="185" x2="185" y1="83.0146" y2="893.1035"/><line style="stroke:#000000;stroke-width:1.0;" x1="495" x2="495" y1="83.0146" y2="893.1035"/><line style="stroke:#000000;stroke-width:1.0;" x1="739" x2="739" y1="83.0146" y2="893.1035"/><line style="stroke:#000000;stroke-width:1.0;" x1="940.5" x2="940.5" y1="83.0146" y2="893.1035"/><text fill="#000000" font-family="Verdana" font-size="14" lengthAdjust="spacing" textLength="32" x="25" y="80.0752">User</text><ellipse cx="44" cy="14" fill="#FFFFFF" rx="8" ry="8" style="stroke:#000000;stroke-width:1.0;"/><path d="M44,22 L44,49 M31,30 L57,30 M44,49 L31,64 M44,49 L57,64 " fill="none" style="stroke:#000000;stroke-width:1.0;"/><text fill="#000000" font-family="Verdana" font-size="14" lengthAdjust="spacing" textLength="32" x="25" y="906.1787">User</text><ellipse cx="44" cy="918.1182" fill="#FFFFFF" rx="8" ry="8" style="stroke:#000000;stroke-width:1.0;"/><path d="M44,926.1182 L44,953.1182 M31,934.1182 L57,934.1182 M44,953.1182 L31,968.1182 M44,953.1182 L57,968.1182 " fill="none" style="stroke:#000000;stroke-width:1.0;"/><rect fill="#FFFFFF" height="31.0146" rx="10" ry="10" style="stroke:#000000;stroke-width:1.0;" width="108" x="131" y="51"/><text fill="#000000" font-family="Verdana" font-size="14" lengthAdjust="spacing" textLength="94" x="138" y="72.0752">Telegram Bot</text><rect fill="#FFFFFF" height="31.0146" rx="10" ry="10" style="stroke:#000000;stroke-width:1.0;" width="108" x="131" y="892.1035"/><text fill="#000000" font-family="Verdana" font-size="14" lengthAdjust="spacing" textLength="94" x="138" y="913.1787">Telegram Bot</text><rect fill="#FFFFFF" height="48.0293" rx="10" ry="10" style="stroke:#000000;stroke-width:1.0;" width="170" x="410" y="33.9854"/><text fill="#000000" font-family="Verdana" font-size="14" lengthAdjust="spacing" textLength="117" x="436.5" y="55.0605">CallbackHandlers</text><text fill="#000000" font-family="Verdana" font-size="14" lengthAdjust="spacing" textLength="156" x="417" y="72.0752">(callback_handlers.py)</text><rect fill="#FFFFFF" height="48.0293" rx="10" ry="10" style="stroke:#000000;stroke-width:1.0;" width="170" x="410" y="892.1035"/><text fill="#000000" font-family="Verdana" font-size="14" lengthAdjust="spacing" textLength="117" x="436.5" y="913.1787">CallbackHandlers</text><text fill="#000000" font-family="Verdana" font-size="14" lengthAdjust="spacing" textLength="156" x="417" y="930.1934">(callback_handlers.py)</text><rect fill="#FFFFFF" height="31.0146" rx="10" ry="10" style="stroke:#000000;stroke-width:1.0;" width="144" x="667" y="51"/><text fill="#000000" font-family="Verdana" font-size="14" lengthAdjust="spacing" textLength="130" x="674" y="72.0752">PlannerAPIAdapter</text><rect fill="#FFFFFF" height="31.0146" rx="10" ry="10" style="stroke:#000000;stroke-width:1.0;" width="144" x="667" y="892.1035"/><text fill="#000000" font-family="Verdana" font-size="14" lengthAdjust="spacing" textLength="130" x="674" y="913.1787">PlannerAPIAdapter</text><rect fill="#FFFFFF" height="31.0146" rx="10" ry="10" style="stroke:#000000;stroke-width:1.0;" width="101" x="890.5" y="51"/><text fill="#000000" font-family="Verdana" font-size="14" lengthAdjust="spacing" textLength="87" x="897.5" y="72.0752">Repositories</text><rect fill="#FFFFFF" height="31.0146" rx="10" ry="10" style="stroke:#000000;stroke-width:1.0;" width="101" x="890.5" y="892.1035"/><text fill="#000000" font-family="Verdana" font-size="14" lengthAdjust="spacing" textLength="87" x="897.5" y="913.1787">Repositories</text><rect fill="#FFFFFF" height="768.2896" style="stroke:#000000;stroke-width:1.0;" width="10" x="180" y="114.814"/><rect fill="#FFFFFF" height="738.4902" style="stroke:#000000;stroke-width:1.0;" width="10" x="490" y="144.6133"/><rect fill="#FFFFFF" height="89.3979" style="stroke:#000000;stroke-width:1.0;" width="10" x="734" y="284.8105"/><rect fill="#FFFFFF" height="89.3979" style="stroke:#000000;stroke-width:1.0;" width="10" x="734" y="496.5737"/><rect fill="#FFFFFF" height="89.3979" style="stroke:#000000;stroke-width:1.0;" width="10" x="734" y="660.939"/><rect fill="#FFFFFF" height="29.7993" style="stroke:#000000;stroke-width:1.0;" width="10" x="936" y="314.6099"/><rect fill="#FFFFFF" height="29.7993" style="stroke:#000000;stroke-width:1.0;" width="10" x="936" y="526.373"/><rect fill="#FFFFFF" height="29.7993" style="stroke:#000000;stroke-width:1.0;" width="10" x="936" y="690.7383"/><polygon fill="#000000" points="168,110.814,178,114.814,168,118.814,172,114.814" style="stroke:#000000;stroke-width:1.0;"/><line style="stroke:#000000;stroke-width:1.0;" x1="44" x2="174" y1="114.814" y2="114.814"/><text fill="#000000" font-family="Verdana" font-size="13" lengthAdjust="spacing" textLength="117" x="53.5" y="110.0845">Click inline button</text><polygon fill="#000000" points="478,140.6133,488,144.6133,478,148.6133,482,144.6133" style="stroke:#000000;stroke-width:1.0;"/><line style="stroke:#000000;stroke-width:1.0;" x1="190" x2="484" y1="144.6133" y2="144.6133"/><text fill="#000000" font-family="Verdana" font-size="13" lengthAdjust="spacing" textLength="281" x="199.5" y="139.8838">handle_promise_callback(update, context)</text><line style="stroke:#000000;stroke-width:1.0;" x1="500" x2="542" y1="174.4126" y2="174.4126"/><line style="stroke:#000000;stroke-width:1.0;" x1="542" x2="542" y1="174.4126" y2="187.4126"/><line style="stroke:#000000;stroke-width:1.0;" x1="501" x2="542" y1="187.4126" y2="187.4126"/><polygon fill="#000000" points="511,183.4126,501,187.4126,511,191.4126,507,187.4126" style="stroke:#000000;stroke-width:1.0;"/><text fill="#000000" font-family="Verdana" font-size="13" lengthAdjust="spacing" textLength="156" x="507" y="169.6831">decode_cb(query.data)</text><line style="stroke:#000000;stroke-width:1.0;" x1="500" x2="542" y1="217.2119" y2="217.2119"/><line style="stroke:#000000;stroke-width:1.0;" x1="542" x2="542" y1="217.2119" y2="230.2119"/><line style="stroke:#000000;stroke-width:1.0;" x1="501" x2="542" y1="230.2119" y2="230.2119"/><polygon fill="#000000" points="511,226.2119,501,230.2119,511,234.2119,507,230.2119" style="stroke:#000000;stroke-width:1.0;"/><text fill="#000000" font-family="Verdana" font-size="13" lengthAdjust="spacing" textLength="210" x="507" y="212.4824">Extract action, promise_id, etc.</text><path d="M25,245.2119 L79,245.2119 L79,253.0112 L69,263.0112 L15,263.0112 L15,255.2119 A10,10 0 0 1 25,245.2119 " fill="#FFFFFF" style="stroke:#000000;stroke-width:1.0;"/><rect fill="none" height="630.8916" rx="10" ry="10" style="stroke:#000000;stroke-width:1.0;" width="996.5" x="15" y="245.2119"/><text fill="#000000" font-family="Verdana" font-size="13" font-weight="bold" lengthAdjust="spacing" textLength="19" x="30" y="259.2817">alt</text><text fill="#000000" font-family="Verdana" font-size="11" font-weight="bold" lengthAdjust="spacing" textLength="166" x="94" y="258.271">[Action: pomodoro_start]</text><polygon fill="#000000" points="722,280.8105,732,284.8105,722,288.8105,726,284.8105" style="stroke:#000000;stroke-width:1.0;"/><line style="stroke:#000000;stroke-width:1.0;" x1="500" x2="728" y1="284.8105" y2="284.8105"/><text fill="#000000" font-family="Verdana" font-size="13" lengthAdjust="spacing" textLength="87" x="573.5" y="280.0811">Start session</text><polygon fill="#000000" points="924,310.6099,934,314.6099,924,318.6099,928,314.6099" style="stroke:#000000;stroke-width:1.0;"/><line style="stroke:#000000;stroke-width:1.0;" x1="744" x2="930" y1="314.6099" y2="314.6099"/><text fill="#000000" font-family="Verdana" font-size="13" lengthAdjust="spacing" textLength="97" x="791.5" y="309.8804">Create session</text><polygon fill="#000000" points="755,340.4092,745,344.4092,755,348.4092,751,344.4092" style="stroke:#000000;stroke-width:1.0;"/><line style="stroke:#000000;stroke-width:1.0;stroke-dasharray:2.0,2.0;" x1="749" x2="940" y1="344.4092" y2="344.4092"/><text fill="#000000" font-family="Verdana" font-size="13" lengthAdjust="spacing" textLength="106" x="789.5" y="339.6797">Session created</text><polygon fill="#000000" points="511,370.2085,501,374.2085,511,378.2085,507,374.2085" style="stroke:#000000;stroke-width:1.0;"/><line style="stroke:#000000;stroke-width:1.0;stroke-dasharray:2.0,2.0;" x1="505" x2="738" y1="374.2085" y2="374.2085"/><text fill="#000000" font-family="Verdana" font-size="13" lengthAdjust="spacing" textLength="79" x="580" y="369.479">Session info</text><polygon fill="#000000" points="55,400.0078,45,404.0078,55,408.0078,51,404.0078" style="stroke:#000000;stroke-width:1.0;"/><line style="stroke:#000000;stroke-width:1.0;" x1="49" x2="489" y1="404.0078" y2="404.0078"/><text fill="#000000" font-family="Verdana" font-size="13" lengthAdjust="spacing" textLength="151" x="191.5" y="399.2783">Send session keyboard</text><line style="stroke:#000000;stroke-width:1.0;stroke-dasharray:2.0,2.0;" x1="15" x2="1011.5" y1="413.0078" y2="413.0078"/><text fill="#000000" font-family="Verdana" font-size="11" font-weight="bold" lengthAdjust="spacing" textLength="129" x="20" y="424.0669">[Action: log_action]</text><polygon fill="#000000" points="722,492.5737,732,496.5737,722,500.5737,726,496.5737" style="stroke:#000000;stroke-width:1.0;"/><line style="stroke:#000000;stroke-width:1.0;" x1="500" x2="728" y1="496.5737" y2="496.5737"/><text fill="#000000" font-family="Verdana" font-size="13" lengthAdjust="spacing" textLength="74" x="580" y="444.4463">log_action(</text><text fill="#000000" font-family="Verdana" font-size="13" lengthAdjust="spacing" textLength="74" x="585" y="460.2456">promise_id,</text><text fill="#000000" font-family="Verdana" font-size="13" lengthAdjust="spacing" textLength="73" x="585.5" y="476.0449">time_spent</text><text fill="#000000" font-family="Verdana" font-size="13" lengthAdjust="spacing" textLength="6" x="614" y="491.8442">)</text><polygon fill="#000000" points="924,522.373,934,526.373,924,530.373,928,526.373" style="stroke:#000000;stroke-width:1.0;"/><line style="stroke:#000000;stroke-width:1.0;" x1="744" x2="930" y1="526.373" y2="526.373"/><text fill="#000000" font-family="Verdana" font-size="13" lengthAdjust="spacing" textLength="79" x="800.5" y="521.6436">Save action</text><polygon fill="#000000" points="755,552.1724,745,556.1724,755,560.1724,751,556.1724" style="stroke:#000000;stroke-width:1.0;"/><line style="stroke:#000000;stroke-width:1.0;stroke-dasharray:2.0,2.0;" x1="749" x2="940" y1="556.1724" y2="556.1724"/><text fill="#000000" font-family="Verdana" font-size="13" lengthAdjust="spacing" textLength="86" x="799.5" y="551.4429">Action saved</text><polygon fill="#000000" points="511,581.9717,501,585.9717,511,589.9717,507,585.9717" style="stroke:#000000;stroke-width:1.0;"/><line style="stroke:#000000;stroke-width:1.0;stroke-dasharray:2.0,2.0;" x1="505" x2="738" y1="585.9717" y2="585.9717"/><text fill="#000000" font-family="Verdana" font-size="13" lengthAdjust="spacing" textLength="82" x="578.5" y="581.2422">Confirmation</text><polygon fill="#000000" points="55,611.771,45,615.771,55,619.771,51,615.771" style="stroke:#000000;stroke-width:1.0;"/><line style="stroke:#000000;stroke-width:1.0;" x1="49" x2="489" y1="615.771" y2="615.771"/><text fill="#000000" font-family="Verdana" font-size="13" lengthAdjust="spacing" textLength="109" x="212.5" y="611.0415">Update message</text><line style="stroke:#000000;stroke-width:1.0;stroke-dasharray:2.0,2.0;" x1="15" x2="1011.5" y1="624.771" y2="624.771"/><text fill="#000000" font-family="Verdana" font-size="11" font-weight="bold" lengthAdjust="spacing" textLength="188" x="20" y="635.8301">[Action: language_selection]</text><polygon fill="#000000" points="722,656.939,732,660.939,722,664.939,726,660.939" style="stroke:#000000;stroke-width:1.0;"/><line style="stroke:#000000;stroke-width:1.0;" x1="500" x2="728" y1="660.939" y2="660.939"/><text fill="#000000" font-family="Verdana" font-size="13" lengthAdjust="spacing" textLength="138" x="548" y="656.2095">Update user settings</text><polygon fill="#000000" points="924,686.7383,934,690.7383,924,694.7383,928,690.7383" style="stroke:#000000;stroke-width:1.0;"/><line style="stroke:#000000;stroke-width:1.0;" x1="744" x2="930" y1="690.7383" y2="690.7383"/><text fill="#000000" font-family="Verdana" font-size="13" lengthAdjust="spacing" textLength="173" x="753.5" y="686.0088">Save language preference</text><polygon fill="#000000" points="755,716.5376,745,720.5376,755,724.5376,751,720.5376" style="stroke:#000000;stroke-width:1.0;"/><line style="stroke:#000000;stroke-width:1.0;stroke-dasharray:2.0,2.0;" x1="749" x2="940" y1="720.5376" y2="720.5376"/><text fill="#000000" font-family="Verdana" font-size="13" lengthAdjust="spacing" textLength="99" x="793" y="715.8081">Settings saved</text><polygon fill="#000000" points="511,746.3369,501,750.3369,511,754.3369,507,750.3369" style="stroke:#000000;stroke-width:1.0;"/><line style="stroke:#000000;stroke-width:1.0;stroke-dasharray:2.0,2.0;" x1="505" x2="738" y1="750.3369" y2="750.3369"/><text fill="#000000" font-family="Verdana" font-size="13" lengthAdjust="spacing" textLength="82" x="578.5" y="745.6074">Confirmation</text><polygon fill="#000000" points="55,776.1362,45,780.1362,55,784.1362,51,780.1362" style="stroke:#000000;stroke-width:1.0;"/><line style="stroke:#000000;stroke-width:1.0;" x1="49" x2="489" y1="780.1362" y2="780.1362"/><text fill="#000000" font-family="Verdana" font-size="13" lengthAdjust="spacing" textLength="157" x="188.5" y="775.4067">Send welcome message</text><line style="stroke:#000000;stroke-width:1.0;stroke-dasharray:2.0,2.0;" x1="15" x2="1011.5" y1="789.1362" y2="789.1362"/><text fill="#000000" font-family="Verdana" font-size="11" font-weight="bold" lengthAdjust="spacing" textLength="99" x="20" y="800.1953">[Other actions]</text><line style="stroke:#000000;stroke-width:1.0;" x1="500" x2="542" y1="825.3042" y2="825.3042"/><line style="stroke:#000000;stroke-width:1.0;" x1="542" x2="542" y1="825.3042" y2="838.3042"/><line style="stroke:#000000;stroke-width:1.0;" x1="501" x2="542" y1="838.3042" y2="838.3042"/><polygon fill="#000000" points="511,834.3042,501,838.3042,511,842.3042,507,838.3042" style="stroke:#000000;stroke-width:1.0;"/><text fill="#000000" font-family="Verdana" font-size="13" lengthAdjust="spacing" textLength="165" x="507" y="820.5747">Route to specific handler</text><polygon fill="#000000" points="55,864.1035,45,868.1035,55,872.1035,51,868.1035" style="stroke:#000000;stroke-width:1.0;"/><line style="stroke:#000000;stroke-width:1.0;" x1="49" x2="489" y1="868.1035" y2="868.1035"/><text fill="#000000" font-family="Verdana" font-size="13" lengthAdjust="spacing" textLength="97" x="218.5" y="863.374">Send response</text><!--SRC=[lLInRjim4Dtv5TTCDk0OHKSF1LoZG3eK3P9cCo3Gv5aXJ1rPaahZl- -HicGvSLDtYGP9FBvtz_X8teVqY0s2jzAGY3j3NWRPGCHVBPB2xnYZh75fJKsWa1A64IgubhHoWJ30fuz2I9LSW8V880OaeuoNbE3g9rgiC-6BIrSWO_wU8bRIserKknj9scA8QvgeGwXwFCJcVZyjx1vyckBMIc8XozjlIoqz2orO7fx2xj2xQ5YdmLWGEI145WtNdxEo1QoiKJimP0qXRDgK7EMrcIUPi6WN_CheNia2Ef6L3wun4QjU_AJrcaapK8wzUqxJOvvX5QB_EyseKJdDcJOJtegmdtCUEVqBzkjp2fmOSd97C-Xb63q3J6hEMsCJBCli0hnhd7R1LJ6nCmBu6QTbonPmdwVu6CJ8b08PX6TBSu2_6PxzOyi2vhcpXE9mZkGVk1vAT5XGXQeBGkDhLgbpijoUQMZhNj9wTUCLvStDBDAzGDZXVkDawAeAj147Uwohgyx8yzOSvoThWh7NUPXCWrNqV5NMDBt0k7lvX30gzo_NEfKGcVO_bgqSRKrev53d8iiUokc5fki2vxoILBSyLKM-uczuTaZKvbiMCIL3TRpKdBu6EurR3BajNNY-kZhlv5KvNh_HAjUSS-m7DzfmsEZuAiMn-9rhkKnom6T8cQrHXzOItYeRC7fEYu87Gepa3arc5CiDx0y0]--></g></svg>