<svg xmlns="http://www.w3.org/2000/svg" xmlns:xlink="http://www.w3.org/1999/xlink" contentStyleType="text/css" height="1234px" preserveAspectRatio="none" style="width:1316px;height:1234px;background:#FFFFFF;" version="1.1" viewBox="0 0 1316 1234" width="1316px" zoomAndPan="magnify"><defs/><g><rect fill="#FFFFFF" height="1027.6514" style="stroke:#000000;stroke-width:1.0;" width="10" x="338" y="114.814"/><rect fill="#FFFFFF" height="982.0527" style="stroke:#000000;stroke-width:1.0;" width="10" x="542" y="160.4126"/><rect fill="#FFFFFF" height="89.3979" style="stroke:#000000;stroke-width:1.0;" width="10" x="936" y="257.8105"/><rect fill="#FFFFFF" height="89.3979" style="stroke:#000000;stroke-width:1.0;" width="10" x="936" y="681.5376"/><rect fill="#FFFFFF" height="29.7993" style="stroke:#000000;stroke-width:1.0;" width="10" x="1088.5" y="287.6099"/><rect fill="#FFFFFF" height="29.7993" style="stroke:#000000;stroke-width:1.0;" width="10" x="1088.5" y="711.3369"/><rect fill="#FFFFFF" height="29.7993" style="stroke:#000000;stroke-width:1.0;" width="10" x="1226.5" y="515.373"/><rect fill="#FFFFFF" height="29.7993" style="stroke:#000000;stroke-width:1.0;" width="10" x="1226.5" y="606.5703"/><rect fill="#FFFFFF" height="960.0527" rx="10" ry="10" style="stroke:#000000;stroke-width:1.0;" width="1294" x="15" y="175.4126"/><rect fill="#FFFFFF" height="92.7666" rx="10" ry="10" style="stroke:#000000;stroke-width:1.0;" width="609.5" x="25" y="362.2085"/><path d="M25,409.8071 L634.5,409.8071 L634.5,444.9751 A10,10 0 0 1 624.5,454.9751 L35,454.9751 A10,10 0 0 1 25,444.9751 L25,409.8071 " fill="#FFFFFF" style="stroke:none;stroke-width:1.0;"/><path d="M15,644.3696 L1309,644.3696 L1309,798.7349 A10,10 0 0 1 1299,808.7349 L25,808.7349 A10,10 0 0 1 15,798.7349 L15,644.3696 " fill="#FFFFFF" style="stroke:none;stroke-width:1.0;"/><path d="M15,808.7349 L1309,808.7349 L1309,1004.8994 A10,10 0 0 1 1299,1014.8994 L25,1014.8994 A10,10 0 0 1 15,1004.8994 L15,808.7349 " fill="#FFFFFF" style="stroke:none;stroke-width:1.0;"/><path d="M15,1014.8994 L1309,1014.8994 L1309,1125.4653 A10,10 0 0 1 1299,1135.4653 L25,1135.4653 A10,10 0 0 1 15,1125.4653 L15,1014.8994 " fill="#FFFFFF" style="stroke:none;stroke-width:1.0;"/><line style="stroke:#000000;stroke-width:1.0;" x1="54" x2="54" y1="83.0146" y2="1152.4653"/><line style="stroke:#000000;stroke-width:1.0;" x1="343" x2="343" y1="83.0146" y2="1152.4653"/><line style="stroke:#000000;stroke-width:1.0;" x1="546.5" x2="546.5" y1="83.0146" y2="1152.4653"/><line style="stroke:#000000;stroke-width:1.0;" x1="941" x2="941" y1="83.0146" y2="1152.4653"/><line style="stroke:#000000;stroke-width:1.0;" x1="1093" x2="1093" y1="83.0146" y2="1152.4653"/><line style="stroke:#000000;stroke-width:1.0;" x1="1231" x2="1231" y1="83.0146" y2="1152.4653"/><text fill="#000000" font-family="Verdana" font-size="14" lengthAdjust="spacing" textLength="32" x="35" y="80.0752">User</text><ellipse cx="54" cy="14" fill="#FFFFFF" rx="8" ry="8" style="stroke:#000000;stroke-width:1.0;"/><path d="M54,22 L54,49 M41,30 L67,30 M54,49 L41,64 M54,49 L67,64 " fill="none" style="stroke:#000000;stroke-width:1.0;"/><text fill="#000000" font-family="Verdana" font-size="14" lengthAdjust="spacing" textLength="32" x="35" y="1165.5405">User</text><ellipse cx="54" cy="1177.48" fill="#FFFFFF" rx="8" ry="8" style="stroke:#000000;stroke-width:1.0;"/><path d="M54,1185.48 L54,1212.48 M41,1193.48 L67,1193.48 M54,1212.48 L41,1227.48 M54,1212.48 L67,1227.48 " fill="none" style="stroke:#000000;stroke-width:1.0;"/><rect fill="#FFFFFF" height="31.0146" rx="10" ry="10" style="stroke:#000000;stroke-width:1.0;" width="108" x="289" y="51"/><text fill="#000000" font-family="Verdana" font-size="14" lengthAdjust="spacing" textLength="94" x="296" y="72.0752">Telegram Bot</text><rect fill="#FFFFFF" height="31.0146" rx="10" ry="10" style="stroke:#000000;stroke-width:1.0;" width="108" x="289" y="1151.4653"/><text fill="#000000" font-family="Verdana" font-size="14" lengthAdjust="spacing" textLength="94" x="296" y="1172.5405">Telegram Bot</text><rect fill="#FFFFFF" height="31.0146" rx="10" ry="10" style="stroke:#000000;stroke-width:1.0;" width="135" x="479.5" y="51"/><text fill="#000000" font-family="Verdana" font-size="14" lengthAdjust="spacing" textLength="121" x="486.5" y="72.0752">MessageHandlers</text><rect fill="#FFFFFF" height="31.0146" rx="10" ry="10" style="stroke:#000000;stroke-width:1.0;" width="135" x="479.5" y="1151.4653"/><text fill="#000000" font-family="Verdana" font-size="14" lengthAdjust="spacing" textLength="121" x="486.5" y="1172.5405">MessageHandlers</text><rect fill="#FFFFFF" height="31.0146" rx="10" ry="10" style="stroke:#000000;stroke-width:1.0;" width="144" x="869" y="51"/><text fill="#000000" font-family="Verdana" font-size="14" lengthAdjust="spacing" textLength="130" x="876" y="72.0752">PlannerAPIAdapter</text><rect fill="#FFFFFF" height="31.0146" rx="10" ry="10" style="stroke:#000000;stroke-width:1.0;" width="144" x="869" y="1151.4653"/><text fill="#000000" font-family="Verdana" font-size="14" lengthAdjust="spacing" textLength="130" x="876" y="1172.5405">PlannerAPIAdapter</text><rect fill="#FFFFFF" height="31.0146" rx="10" ry="10" style="stroke:#000000;stroke-width:1.0;" width="101" x="1043" y="51"/><text fill="#000000" font-family="Verdana" font-size="14" lengthAdjust="spacing" textLength="87" x="1050" y="72.0752">Repositories</text><rect fill="#FFFFFF" height="31.0146" rx="10" ry="10" style="stroke:#000000;stroke-width:1.0;" width="101" x="1043" y="1151.4653"/><text fill="#000000" font-family="Verdana" font-size="14" lengthAdjust="spacing" textLength="87" x="1050" y="1172.5405">Repositories</text><rect fill="#FFFFFF" height="48.0293" rx="10" ry="10" style="stroke:#000000;stroke-width:1.0;" width="115" x="1174" y="33.9854"/><text fill="#000000" font-family="Verdana" font-size="14" lengthAdjust="spacing" textLength="69" x="1197" y="55.0605">Scheduler</text><text fill="#000000" font-family="Verdana" font-size="14" lengthAdjust="spacing" textLength="101" x="1181" y="72.0752">(scheduler.py)</text><rect fill="#FFFFFF" height="48.0293" rx="10" ry="10" style="stroke:#000000;stroke-width:1.0;" width="115" x="1174" y="1151.4653"/><text fill="#000000" font-family="Verdana" font-size="14" lengthAdjust="spacing" textLength="69" x="1197" y="1172.5405">Scheduler</text><text fill="#000000" font-family="Verdana" font-size="14" lengthAdjust="spacing" textLength="101" x="1181" y="1189.5552">(scheduler.py)</text><rect fill="#FFFFFF" height="1027.6514" style="stroke:#000000;stroke-width:1.0;" width="10" x="338" y="114.814"/><rect fill="#FFFFFF" height="982.0527" style="stroke:#000000;stroke-width:1.0;" width="10" x="542" y="160.4126"/><rect fill="#FFFFFF" height="89.3979" style="stroke:#000000;stroke-width:1.0;" width="10" x="936" y="257.8105"/><rect fill="#FFFFFF" height="89.3979" style="stroke:#000000;stroke-width:1.0;" width="10" x="936" y="681.5376"/><rect fill="#FFFFFF" height="29.7993" style="stroke:#000000;stroke-width:1.0;" width="10" x="1088.5" y="287.6099"/><rect fill="#FFFFFF" height="29.7993" style="stroke:#000000;stroke-width:1.0;" width="10" x="1088.5" y="711.3369"/><rect fill="#FFFFFF" height="29.7993" style="stroke:#000000;stroke-width:1.0;" width="10" x="1226.5" y="515.373"/><rect fill="#FFFFFF" height="29.7993" style="stroke:#000000;stroke-width:1.0;" width="10" x="1226.5" y="606.5703"/><polygon fill="#000000" points="326,110.814,336,114.814,326,118.814,330,114.814" style="stroke:#000000;stroke-width:1.0;"/><line style="stroke:#000000;stroke-width:1.0;" x1="54" x2="332" y1="114.814" y2="114.814"/><text fill="#000000" font-family="Verdana" font-size="13" lengthAdjust="spacing" textLength="265" x="63.5" y="110.0845">Send command (/start, /promises, etc.)</text><polygon fill="#000000" points="530,156.4126,540,160.4126,530,164.4126,534,160.4126" style="stroke:#000000;stroke-width:1.0;"/><line style="stroke:#000000;stroke-width:1.0;" x1="348" x2="536" y1="160.4126" y2="160.4126"/><text fill="#000000" font-family="Verdana" font-size="13" lengthAdjust="spacing" textLength="116" x="387" y="139.8838">Command handler</text><text fill="#000000" font-family="Verdana" font-size="13" lengthAdjust="spacing" textLength="175" x="357.5" y="155.6831">(start, list_promises, etc.)</text><path d="M25,175.4126 L79,175.4126 L79,183.2119 L69,193.2119 L15,193.2119 L15,185.4126 A10,10 0 0 1 25,175.4126 " fill="#FFFFFF" style="stroke:#000000;stroke-width:1.0;"/><rect fill="none" height="960.0527" rx="10" ry="10" style="stroke:#000000;stroke-width:1.0;" width="1294" x="15" y="175.4126"/><text fill="#000000" font-family="Verdana" font-size="13" font-weight="bold" lengthAdjust="spacing" textLength="19" x="30" y="189.4824">alt</text><text fill="#000000" font-family="Verdana" font-size="11" font-weight="bold" lengthAdjust="spacing" textLength="123" x="94" y="188.4717">[Command: /start]</text><line style="stroke:#000000;stroke-width:1.0;" x1="552" x2="594" y1="215.0112" y2="215.0112"/><line style="stroke:#000000;stroke-width:1.0;" x1="594" x2="594" y1="215.0112" y2="228.0112"/><line style="stroke:#000000;stroke-width:1.0;" x1="553" x2="594" y1="228.0112" y2="228.0112"/><polygon fill="#000000" points="563,224.0112,553,228.0112,563,232.0112,559,228.0112" style="stroke:#000000;stroke-width:1.0;"/><text fill="#000000" font-family="Verdana" font-size="13" lengthAdjust="spacing" textLength="158" x="559" y="210.2817">create_user_directory()</text><polygon fill="#000000" points="924,253.8105,934,257.8105,924,261.8105,928,257.8105" style="stroke:#000000;stroke-width:1.0;"/><line style="stroke:#000000;stroke-width:1.0;" x1="552" x2="930" y1="257.8105" y2="257.8105"/><text fill="#000000" font-family="Verdana" font-size="13" lengthAdjust="spacing" textLength="146" x="671" y="253.0811">get_promises(user_id)</text><polygon fill="#000000" points="1076.5,283.6099,1086.5,287.6099,1076.5,291.6099,1080.5,287.6099" style="stroke:#000000;stroke-width:1.0;"/><line style="stroke:#000000;stroke-width:1.0;" x1="946" x2="1082.5" y1="287.6099" y2="287.6099"/><text fill="#000000" font-family="Verdana" font-size="13" lengthAdjust="spacing" textLength="85" x="974.75" y="282.8804">List promises</text><polygon fill="#000000" points="957,313.4092,947,317.4092,957,321.4092,953,317.4092" style="stroke:#000000;stroke-width:1.0;"/><line style="stroke:#000000;stroke-width:1.0;stroke-dasharray:2.0,2.0;" x1="951" x2="1092.5" y1="317.4092" y2="317.4092"/><text fill="#000000" font-family="Verdana" font-size="13" lengthAdjust="spacing" textLength="81" x="979.25" y="312.6797">Promises list</text><polygon fill="#000000" points="563,343.2085,553,347.2085,563,351.2085,559,347.2085" style="stroke:#000000;stroke-width:1.0;"/><line style="stroke:#000000;stroke-width:1.0;stroke-dasharray:2.0,2.0;" x1="557" x2="940" y1="347.2085" y2="347.2085"/><text fill="#000000" font-family="Verdana" font-size="13" lengthAdjust="spacing" textLength="57" x="718" y="342.479">Promises</text><path d="M35,362.2085 L89,362.2085 L89,370.0078 L79,380.0078 L25,380.0078 L25,372.2085 A10,10 0 0 1 35,362.2085 " fill="#FFFFFF" style="stroke:#000000;stroke-width:1.0;"/><rect fill="none" height="92.7666" rx="10" ry="10" style="stroke:#000000;stroke-width:1.0;" width="609.5" x="25" y="362.2085"/><text fill="#000000" font-family="Verdana" font-size="13" font-weight="bold" lengthAdjust="spacing" textLength="19" x="40" y="376.2783">alt</text><text fill="#000000" font-family="Verdana" font-size="11" font-weight="bold" lengthAdjust="spacing" textLength="72" x="104" y="375.2676">[New user]</text><polygon fill="#000000" points="65,397.8071,55,401.8071,65,405.8071,61,401.8071" style="stroke:#000000;stroke-width:1.0;"/><line style="stroke:#000000;stroke-width:1.0;" x1="59" x2="541" y1="401.8071" y2="401.8071"/><text fill="#000000" font-family="Verdana" font-size="13" lengthAdjust="spacing" textLength="164" x="216" y="397.0776">Show language selection</text><line style="stroke:#000000;stroke-width:1.0;stroke-dasharray:2.0,2.0;" x1="25" x2="634.5" y1="410.8071" y2="410.8071"/><text fill="#000000" font-family="Verdana" font-size="11" font-weight="bold" lengthAdjust="spacing" textLength="97" x="30" y="421.8662">[Existing user]</text><polygon fill="#000000" points="65,442.9751,55,446.9751,65,450.9751,61,446.9751" style="stroke:#000000;stroke-width:1.0;"/><line style="stroke:#000000;stroke-width:1.0;" x1="59" x2="541" y1="446.9751" y2="446.9751"/><text fill="#000000" font-family="Verdana" font-size="13" lengthAdjust="spacing" textLength="157" x="219.5" y="442.2456">Send welcome message</text><polygon fill="#000000" points="1214.5,511.373,1224.5,515.373,1214.5,519.373,1218.5,515.373" style="stroke:#000000;stroke-width:1.0;"/><line style="stroke:#000000;stroke-width:1.0;" x1="552" x2="1220.5" y1="515.373" y2="515.373"/><text fill="#000000" font-family="Verdana" font-size="13" lengthAdjust="spacing" textLength="138" x="820.25" y="479.0449">schedule_user_daily(</text><text fill="#000000" font-family="Verdana" font-size="13" lengthAdjust="spacing" textLength="119" x="834.75" y="494.8442">morning reminders</text><text fill="#000000" font-family="Verdana" font-size="13" lengthAdjust="spacing" textLength="6" x="886.25" y="510.6436">)</text><polygon fill="#000000" points="563,541.1724,553,545.1724,563,549.1724,559,545.1724" style="stroke:#000000;stroke-width:1.0;"/><line style="stroke:#000000;stroke-width:1.0;stroke-dasharray:2.0,2.0;" x1="557" x2="1230.5" y1="545.1724" y2="545.1724"/><text fill="#000000" font-family="Verdana" font-size="13" lengthAdjust="spacing" textLength="68" x="857.75" y="540.4429">Scheduled</text><polygon fill="#000000" points="1214.5,602.5703,1224.5,606.5703,1214.5,610.5703,1218.5,606.5703" style="stroke:#000000;stroke-width:1.0;"/><line style="stroke:#000000;stroke-width:1.0;" x1="552" x2="1220.5" y1="606.5703" y2="606.5703"/><text fill="#000000" font-family="Verdana" font-size="13" lengthAdjust="spacing" textLength="138" x="820.25" y="570.2422">schedule_user_daily(</text><text fill="#000000" font-family="Verdana" font-size="13" lengthAdjust="spacing" textLength="112" x="838.25" y="586.0415">nightly reminders</text><text fill="#000000" font-family="Verdana" font-size="13" lengthAdjust="spacing" textLength="6" x="886.25" y="601.8408">)</text><polygon fill="#000000" points="563,632.3696,553,636.3696,563,640.3696,559,636.3696" style="stroke:#000000;stroke-width:1.0;"/><line style="stroke:#000000;stroke-width:1.0;stroke-dasharray:2.0,2.0;" x1="557" x2="1230.5" y1="636.3696" y2="636.3696"/><text fill="#000000" font-family="Verdana" font-size="13" lengthAdjust="spacing" textLength="68" x="857.75" y="631.6401">Scheduled</text><line style="stroke:#000000;stroke-width:1.0;stroke-dasharray:2.0,2.0;" x1="15" x2="1309" y1="645.3696" y2="645.3696"/><text fill="#000000" font-family="Verdana" font-size="11" font-weight="bold" lengthAdjust="spacing" textLength="152" x="20" y="656.4287">[Command: /promises]</text><polygon fill="#000000" points="924,677.5376,934,681.5376,924,685.5376,928,681.5376" style="stroke:#000000;stroke-width:1.0;"/><line style="stroke:#000000;stroke-width:1.0;" x1="552" x2="930" y1="681.5376" y2="681.5376"/><text fill="#000000" font-family="Verdana" font-size="13" lengthAdjust="spacing" textLength="146" x="671" y="676.8081">get_promises(user_id)</text><polygon fill="#000000" points="1076.5,707.3369,1086.5,711.3369,1076.5,715.3369,1080.5,711.3369" style="stroke:#000000;stroke-width:1.0;"/><line style="stroke:#000000;stroke-width:1.0;" x1="946" x2="1082.5" y1="711.3369" y2="711.3369"/><text fill="#000000" font-family="Verdana" font-size="13" lengthAdjust="spacing" textLength="85" x="974.75" y="706.6074">List promises</text><polygon fill="#000000" points="957,737.1362,947,741.1362,957,745.1362,953,741.1362" style="stroke:#000000;stroke-width:1.0;"/><line style="stroke:#000000;stroke-width:1.0;stroke-dasharray:2.0,2.0;" x1="951" x2="1092.5" y1="741.1362" y2="741.1362"/><text fill="#000000" font-family="Verdana" font-size="13" lengthAdjust="spacing" textLength="81" x="979.25" y="736.4067">Promises list</text><polygon fill="#000000" points="563,766.9355,553,770.9355,563,774.9355,559,770.9355" style="stroke:#000000;stroke-width:1.0;"/><line style="stroke:#000000;stroke-width:1.0;stroke-dasharray:2.0,2.0;" x1="557" x2="940" y1="770.9355" y2="770.9355"/><text fill="#000000" font-family="Verdana" font-size="13" lengthAdjust="spacing" textLength="57" x="718" y="766.2061">Promises</text><polygon fill="#000000" points="65,796.7349,55,800.7349,65,804.7349,61,800.7349" style="stroke:#000000;stroke-width:1.0;"/><line style="stroke:#000000;stroke-width:1.0;" x1="59" x2="541" y1="800.7349" y2="800.7349"/><text fill="#000000" font-family="Verdana" font-size="13" lengthAdjust="spacing" textLength="189" x="203.5" y="796.0054">Send formatted promises list</text><line style="stroke:#000000;stroke-width:1.0;stroke-dasharray:2.0,2.0;" x1="15" x2="1309" y1="809.7349" y2="809.7349"/><text fill="#000000" font-family="Verdana" font-size="11" font-weight="bold" lengthAdjust="spacing" textLength="123" x="20" y="820.7939">[Command: /zana]</text><polygon fill="#000000" points="929,841.9028,939,845.9028,929,849.9028,933,845.9028" style="stroke:#000000;stroke-width:1.0;"/><line style="stroke:#000000;stroke-width:1.0;" x1="552" x2="935" y1="845.9028" y2="845.9028"/><text fill="#000000" font-family="Verdana" font-size="13" lengthAdjust="spacing" textLength="146" x="673.5" y="841.1733">get_promises(user_id)</text><polygon fill="#000000" points="929,887.5015,939,891.5015,929,895.5015,933,891.5015" style="stroke:#000000;stroke-width:1.0;"/><line style="stroke:#000000;stroke-width:1.0;" x1="552" x2="935" y1="891.5015" y2="891.5015"/><text fill="#000000" font-family="Verdana" font-size="13" lengthAdjust="spacing" textLength="140" x="676.5" y="870.9727">get_promise_report()</text><text fill="#000000" font-family="Verdana" font-size="13" lengthAdjust="spacing" textLength="110" x="691.5" y="886.772">for each promise</text><line style="stroke:#000000;stroke-width:1.0;" x1="552" x2="594" y1="921.3008" y2="921.3008"/><line style="stroke:#000000;stroke-width:1.0;" x1="594" x2="594" y1="921.3008" y2="934.3008"/><line style="stroke:#000000;stroke-width:1.0;" x1="553" x2="594" y1="934.3008" y2="934.3008"/><polygon fill="#000000" points="563,930.3008,553,934.3008,563,938.3008,559,934.3008" style="stroke:#000000;stroke-width:1.0;"/><text fill="#000000" font-family="Verdana" font-size="13" lengthAdjust="spacing" textLength="136" x="559" y="916.5713">Build insights prompt</text><line style="stroke:#000000;stroke-width:1.0;" x1="552" x2="594" y1="964.1001" y2="964.1001"/><line style="stroke:#000000;stroke-width:1.0;" x1="594" x2="594" y1="964.1001" y2="977.1001"/><line style="stroke:#000000;stroke-width:1.0;" x1="553" x2="594" y1="977.1001" y2="977.1001"/><polygon fill="#000000" points="563,973.1001,553,977.1001,563,981.1001,559,977.1001" style="stroke:#000000;stroke-width:1.0;"/><text fill="#000000" font-family="Verdana" font-size="13" lengthAdjust="spacing" textLength="235" x="559" y="959.3706">llm_handler.get_response_custom()</text><polygon fill="#000000" points="65,1002.8994,55,1006.8994,65,1010.8994,61,1006.8994" style="stroke:#000000;stroke-width:1.0;"/><line style="stroke:#000000;stroke-width:1.0;" x1="59" x2="541" y1="1006.8994" y2="1006.8994"/><text fill="#000000" font-family="Verdana" font-size="13" lengthAdjust="spacing" textLength="107" x="244.5" y="1002.1699">Send AI insights</text><line style="stroke:#000000;stroke-width:1.0;stroke-dasharray:2.0,2.0;" x1="15" x2="1309" y1="1015.8994" y2="1015.8994"/><text fill="#000000" font-family="Verdana" font-size="11" font-weight="bold" lengthAdjust="spacing" textLength="138" x="20" y="1026.9585">[Command: /weekly]</text><polygon fill="#000000" points="929,1048.0674,939,1052.0674,929,1056.0674,933,1052.0674" style="stroke:#000000;stroke-width:1.0;"/><line style="stroke:#000000;stroke-width:1.0;" x1="552" x2="935" y1="1052.0674" y2="1052.0674"/><text fill="#000000" font-family="Verdana" font-size="13" lengthAdjust="spacing" textLength="260" x="616.5" y="1047.3379">reports_service.get_weekly_summary()</text><polygon fill="#000000" points="929,1077.8667,939,1081.8667,929,1085.8667,933,1081.8667" style="stroke:#000000;stroke-width:1.0;"/><line style="stroke:#000000;stroke-width:1.0;" x1="552" x2="935" y1="1081.8667" y2="1081.8667"/><text fill="#000000" font-family="Verdana" font-size="13" lengthAdjust="spacing" textLength="365" x="564" y="1077.1372">reports_service.generate_weekly_visualization_image()</text><polygon fill="#000000" points="65,1123.4653,55,1127.4653,65,1131.4653,61,1127.4653" style="stroke:#000000;stroke-width:1.0;"/><line style="stroke:#000000;stroke-width:1.0;" x1="59" x2="541" y1="1127.4653" y2="1127.4653"/><text fill="#000000" font-family="Verdana" font-size="13" lengthAdjust="spacing" textLength="128" x="234" y="1106.9365">Send weekly report</text><text fill="#000000" font-family="Verdana" font-size="13" lengthAdjust="spacing" textLength="71" x="262.5" y="1122.7358">with image</text><!--SRC=[tLLDRzD04BtxLmmzELAR8eu-8AK8YKg08WgtIDRAEzYhxeVPNJUalvwPjPtO-IY20mToYEFnUpDlPb_6hsA31g7LGjaiF2hR2YyC1FpHeQtm4uOWQbnfLLkeq4Rq4vHtdPMLynOzl7cTPQAApiEtG202H5MfLjW8LrzHOys4EnUlG0I-pX53dG_2Ieq-9D1mCmUkjR1KRhM-NqdHafm4fTivx0ksBYXIex1Fne4vvA5gK7PKO6FpCFvUjhj5mk-VPXdt0pTlMNG13sWbLCuO4WVvROYKyXfkM- -C2XYk0MErNF0ar9E8c3hDw8iJ30qLy6xWDts01VHvj0gnl9Xh74WcT1np5D1ho80-0s1Mg_98tBAZ9agfFF8HxVB5CPucM42DX-fvOYZP8_SQUD8Se2lJUAm5V2JPC1Bd-3HtZl0Fk1ahhGTmwZWzbtZAIKMcpQodDIQCKLLVcwRp6RV03QJ0KQjyddIGZTi2cQdko7VaTqsJKSuc0kg0yFudILEs_bqUDiGMDNa2mVGsxfDOUT0qeUsTLS1ek-5qXDAxV6C13FsbkB97ewoa_yF67Xt3mPuStj_DfpM6vV6uvko_46XLtKIz-rS2qtaS33zpsd_duVCE- -wy4J6Yt6iyb3sUpxEmuWzdymAozDIAZ_bYOqa4aE1cr71nwTnrIajGDh1FGeAtbrUKrgOSLk6I2tiChRDKkUf2TEPqMKtcihhVbpaxYotYezwTxR7lAvIKx4bLc4hty39qnB-u9a-9z4RY9JkmdrJeX5RFWXTAgGnjX1Txw6b3setTgjX0OcMyGxA9HyOtm2J4BvXV]--></g></svg>