<svg xmlns="http://www.w3.org/2000/svg" xmlns:xlink="http://www.w3.org/1999/xlink" contentStyleType="text/css" height="536px" preserveAspectRatio="none" style="width:2292px;height:536px;background:#FFFFFF;" version="1.1" viewBox="0 0 2292 536" width="2292px" zoomAndPan="magnify"><defs/><g><!--cluster External Inputs--><g id="cluster_External Inputs"><path d="M37.33,85.5 L154.33,85.5 A7.5,7.5 0 0 1 159.33,90.5 L166.33,108.5146 L181.33,108.5146 A5,5 0 0 1 186.33,113.5146 L186.33,362 A5,5 0 0 1 181.33,367 L37.33,367 A5,5 0 0 1 32.33,362 L32.33,90.5 A5,5 0 0 1 37.33,85.5 " fill="#FFFFFF" style="stroke:#000000;stroke-width:1.0;"/><line style="stroke:#000000;stroke-width:1.0;" x1="32.33" x2="166.33" y1="108.5146" y2="108.5146"/><text fill="#000000" font-family="Verdana" font-size="14" font-weight="bold" lengthAdjust="spacing" textLength="121" x="36.33" y="101.5752">External Inputs</text></g><!--cluster Bot System--><g id="cluster_Bot System"><path d="M215.33,11 L299.33,11 A7.5,7.5 0 0 1 304.33,16 L311.33,34.0146 L2280.33,34.0146 A5,5 0 0 1 2285.33,39.0146 L2285.33,384 A5,5 0 0 1 2280.33,389 L215.33,389 A5,5 0 0 1 210.33,384 L210.33,16 A5,5 0 0 1 215.33,11 " fill="#FFFFFF" style="stroke:#000000;stroke-width:1.0;"/><line style="stroke:#000000;stroke-width:1.0;" x1="210.33" x2="311.33" y1="34.0146" y2="34.0146"/><text fill="#000000" font-family="Verdana" font-size="14" font-weight="bold" lengthAdjust="spacing" textLength="88" x="214.33" y="27.0752">Bot System</text></g><!--cluster Bot--><g id="cluster_Bot"><rect fill="#FFFFFF" height="127" rx="5" ry="5" style="stroke:#000000;stroke-width:1.0;" width="209" x="1503.33" y="63"/><text fill="#000000" font-family="Verdana" font-size="14" font-weight="bold" lengthAdjust="spacing" textLength="104" x="1555.83" y="79.0752">Telegram Bot</text><text fill="#000000" font-family="Verdana" font-size="14" font-weight="bold" lengthAdjust="spacing" textLength="135" x="1540.33" y="96.0898">(planner_bot.py)</text></g><!--cluster Handlers--><g id="cluster_Handlers"><rect fill="#FFFFFF" height="127" rx="5" ry="5" style="stroke:#000000;stroke-width:1.0;" width="203" x="1508.33" y="230"/><text fill="#000000" font-family="Verdana" font-size="14" font-weight="bold" lengthAdjust="spacing" textLength="139" x="1540.33" y="246.0752">Message Handlers</text><text fill="#000000" font-family="Verdana" font-size="14" font-weight="bold" lengthAdjust="spacing" textLength="184" x="1517.83" y="263.0898">(message_handlers.py)</text></g><!--cluster Callbacks--><g id="cluster_Callbacks"><rect fill="#FFFFFF" height="127" rx="5" ry="5" style="stroke:#000000;stroke-width:1.0;" width="241" x="1751.33" y="230"/><text fill="#000000" font-family="Verdana" font-size="14" font-weight="bold" lengthAdjust="spacing" textLength="137" x="1803.33" y="246.0752">Callback Handlers</text><text fill="#000000" font-family="Verdana" font-size="14" font-weight="bold" lengthAdjust="spacing" textLength="178" x="1782.83" y="263.0898">(callback_handlers.py)</text></g><!--cluster LLM--><g id="cluster_LLM"><rect fill="#FFFFFF" height="127" rx="5" ry="5" style="stroke:#000000;stroke-width:1.0;" width="221" x="1247.33" y="230"/><text fill="#000000" font-family="Verdana" font-size="14" font-weight="bold" lengthAdjust="spacing" textLength="96" x="1309.83" y="246.0752">LLM Handler</text><text fill="#000000" font-family="Verdana" font-size="14" font-weight="bold" lengthAdjust="spacing" textLength="131" x="1292.33" y="263.0898">(llm_handler.py)</text></g><!--cluster Agent--><g id="cluster_Agent"><rect fill="#FFFFFF" height="127" rx="5" ry="5" style="stroke:#000000;stroke-width:1.0;" width="201" x="1006.33" y="230"/><text fill="#000000" font-family="Verdana" font-size="14" font-weight="bold" lengthAdjust="spacing" textLength="98" x="1057.83" y="246.0752">Agent Graph</text><text fill="#000000" font-family="Verdana" font-size="14" font-weight="bold" lengthAdjust="spacing" textLength="84" x="1064.83" y="263.0898">(agent.py)</text></g><!--cluster Translator--><g id="cluster_Translator"><rect fill="#FFFFFF" height="127" rx="5" ry="5" style="stroke:#000000;stroke-width:1.0;" width="225" x="741.33" y="230"/><text fill="#000000" font-family="Verdana" font-size="14" font-weight="bold" lengthAdjust="spacing" textLength="80" x="813.83" y="246.0752">Translator</text><text fill="#000000" font-family="Verdana" font-size="14" font-weight="bold" lengthAdjust="spacing" textLength="116" x="795.83" y="263.0898">(translator.py)</text></g><!--cluster API--><g id="cluster_API"><rect fill="#FFFFFF" height="127" rx="5" ry="5" style="stroke:#000000;stroke-width:1.0;" width="218" x="483.33" y="230"/><text fill="#000000" font-family="Verdana" font-size="14" font-weight="bold" lengthAdjust="spacing" textLength="160" x="512.33" y="246.0752">Planner API Adapter</text><text fill="#000000" font-family="Verdana" font-size="14" font-weight="bold" lengthAdjust="spacing" textLength="202" x="491.33" y="263.0898">(planner_api_adapter.py)</text></g><!--cluster Repos--><g id="cluster_Repos"><rect fill="#FFFFFF" height="110" rx="5" ry="5" style="stroke:#000000;stroke-width:1.0;" width="201" x="242.33" y="247"/><text fill="#000000" font-family="Verdana" font-size="14" font-weight="bold" lengthAdjust="spacing" textLength="96" x="294.83" y="263.0752">Repositories</text></g><!--cluster Services--><g id="cluster_Services"><rect fill="#FFFFFF" height="110" rx="5" ry="5" style="stroke:#000000;stroke-width:1.0;" width="221" x="2032.33" y="247"/><text fill="#000000" font-family="Verdana" font-size="14" font-weight="bold" lengthAdjust="spacing" textLength="64" x="2110.83" y="263.0752">Services</text></g><!--cluster External Services--><g id="cluster_External Services"><path d="M936.33,413 L1065.33,413 A7.5,7.5 0 0 1 1070.33,418 L1077.33,436.0146 L1597.33,436.0146 A5,5 0 0 1 1602.33,441.0146 L1602.33,524 A5,5 0 0 1 1597.33,529 L936.33,529 A5,5 0 0 1 931.33,524 L931.33,418 A5,5 0 0 1 936.33,413 " fill="#FFFFFF" style="stroke:#000000;stroke-width:1.0;"/><line style="stroke:#000000;stroke-width:1.0;" x1="931.33" x2="1077.33" y1="436.0146" y2="436.0146"/><text fill="#000000" font-family="Verdana" font-size="14" font-weight="bold" lengthAdjust="spacing" textLength="133" x="935.33" y="429.0752">External Services</text></g><!--entity User--><g id="elem_User"><ellipse cx="109.33" cy="282" fill="#FFFFFF" rx="8" ry="8" style="stroke:#000000;stroke-width:1.0;"/><path d="M109.33,290 L109.33,317 M96.33,298 L122.33,298 M109.33,317 L96.33,332 M109.33,317 L122.33,332 " fill="none" style="stroke:#000000;stroke-width:1.0;"/><text fill="#000000" font-family="Verdana" font-size="14" lengthAdjust="spacing" textLength="32" x="93.33" y="348.0752">User</text></g><!--entity Telegram--><g id="elem_Telegram"><path d="M56.5101,130.4445 C60.5203,123.3501 66.3538,122.8589 71.2358,129.5105 C74.638,123.234 78.6319,123.498 82.912,128.6104 C86.2729,121.4951 91.9793,119.6617 97.5021,126.3205 C101.3451,119.1128 105.7109,119.4889 111.2899,124.3346 C115.8567,119.503 121.2907,119.2418 123.7829,126.4817 C128.9348,120.8655 134.1309,120.7804 137.6898,128.1834 C141.2751,122.0542 145.678,123.0526 149.2023,128.2455 C155.0222,121.2657 161.825,123.0377 164.4768,131.3997 C173.8149,132.9933 176.3088,137.4892 172.9005,146.2925 C176.9287,154.4644 173.9656,162.8172 163.2463,161.8196 C160.0086,167.7026 154.4524,167.3849 150.9615,162.0981 C147.4273,168.4471 141.2814,168.1878 137.1768,162.7659 C133.3834,169.3426 128.3328,169.4909 123.3105,164.202 C119.6227,170.5421 115.3629,170.737 111.5065,164.3585 C107.838,172.5906 100.3381,172.414 96.4245,164.5887 C92.3764,171.0053 87.1487,169.9945 83.9506,163.7511 C79.0676,170.4756 74.1609,169.1868 70.5004,162.523 C65.5899,170.0217 61.1423,169.1707 56.4945,162.2676 C47.9557,161.4386 43.4872,154.9724 48.1661,146.9547 C42.1824,136.7325 45.2529,131.9534 56.5101,130.4445 " fill="#FFFFFF" style="stroke:#000000;stroke-width:1.0;"/><text fill="#000000" font-family="Verdana" font-size="14" lengthAdjust="spacing" textLength="92" x="63.33" y="150.5752">Telegram API</text></g><g id="elem_GMN7"><path d="M1527.83,129 L1527.83,160.5986 A5,5 0 0 0 1532.83,165.5986 L1663.83,165.5986 A5,5 0 0 0 1668.83,160.5986 L1668.83,134 L1658.83,124 L1532.83,124 A5,5 0 0 0 1527.83,129 " fill="#FFFFFF" style="stroke:#000000;stroke-width:1.0;"/><path d="M1658.83,124 L1658.83,131.5 A2.5,2.5 0 0 0 1661.33,134 L1668.83,134 L1658.83,124 " fill="#FFFFFF" style="stroke:#000000;stroke-width:1.0;"/><text fill="#000000" font-family="Verdana" font-size="13" lengthAdjust="spacing" textLength="73" x="1533.83" y="142.0698">Entry point</text><text fill="#000000" font-family="Verdana" font-size="13" lengthAdjust="spacing" textLength="120" x="1533.83" y="157.8691">Registers handlers</text></g><g id="elem_GMN11"><path d="M1532.83,296 L1532.83,327.5986 A5,5 0 0 0 1537.83,332.5986 L1662.83,332.5986 A5,5 0 0 0 1667.83,327.5986 L1667.83,301 L1657.83,291 L1537.83,291 A5,5 0 0 0 1532.83,296 " fill="#FFFFFF" style="stroke:#000000;stroke-width:1.0;"/><path d="M1657.83,291 L1657.83,298.5 A2.5,2.5 0 0 0 1660.33,301 L1667.83,301 L1657.83,291 " fill="#FFFFFF" style="stroke:#000000;stroke-width:1.0;"/><text fill="#000000" font-family="Verdana" font-size="13" lengthAdjust="spacing" textLength="114" x="1538.83" y="309.0698">Routes messages</text><text fill="#000000" font-family="Verdana" font-size="13" lengthAdjust="spacing" textLength="98" x="1538.83" y="324.8691">Manages state</text></g><g id="elem_GMN15"><path d="M1794.33,296 L1794.33,327.5986 A5,5 0 0 0 1799.33,332.5986 L1963.33,332.5986 A5,5 0 0 0 1968.33,327.5986 L1968.33,301 L1958.33,291 L1799.33,291 A5,5 0 0 0 1794.33,296 " fill="#FFFFFF" style="stroke:#000000;stroke-width:1.0;"/><path d="M1958.33,291 L1958.33,298.5 A2.5,2.5 0 0 0 1960.83,301 L1968.33,301 L1958.33,291 " fill="#FFFFFF" style="stroke:#000000;stroke-width:1.0;"/><text fill="#000000" font-family="Verdana" font-size="13" lengthAdjust="spacing" textLength="141" x="1800.33" y="309.0698">Handles button clicks</text><text fill="#000000" font-family="Verdana" font-size="13" lengthAdjust="spacing" textLength="153" x="1800.33" y="324.8691">Inline keyboard actions</text></g><g id="elem_GMN19"><path d="M1290.83,296 L1290.83,327.5986 A5,5 0 0 0 1295.83,332.5986 L1438.83,332.5986 A5,5 0 0 0 1443.83,327.5986 L1443.83,301 L1433.83,291 L1295.83,291 A5,5 0 0 0 1290.83,296 " fill="#FFFFFF" style="stroke:#000000;stroke-width:1.0;"/><path d="M1433.83,291 L1433.83,298.5 A2.5,2.5 0 0 0 1436.33,301 L1443.83,301 L1433.83,291 " fill="#FFFFFF" style="stroke:#000000;stroke-width:1.0;"/><text fill="#000000" font-family="Verdana" font-size="13" lengthAdjust="spacing" textLength="106" x="1296.83" y="309.0698">Chat processing</text><text fill="#000000" font-family="Verdana" font-size="13" lengthAdjust="spacing" textLength="132" x="1296.83" y="324.8691">Agent orchestration</text></g><g id="elem_GMN23"><path d="M1049.33,296 L1049.33,327.5986 A5,5 0 0 0 1054.33,332.5986 L1178.33,332.5986 A5,5 0 0 0 1183.33,327.5986 L1183.33,301 L1173.33,291 L1054.33,291 A5,5 0 0 0 1049.33,296 " fill="#FFFFFF" style="stroke:#000000;stroke-width:1.0;"/><path d="M1173.33,291 L1173.33,298.5 A2.5,2.5 0 0 0 1175.83,301 L1183.33,301 L1173.33,291 " fill="#FFFFFF" style="stroke:#000000;stroke-width:1.0;"/><text fill="#000000" font-family="Verdana" font-size="13" lengthAdjust="spacing" textLength="113" x="1055.33" y="309.0698">Planner-Executor</text><text fill="#000000" font-family="Verdana" font-size="13" lengthAdjust="spacing" textLength="97" x="1055.33" y="324.8691">Tool execution</text></g><g id="elem_GMN27"><path d="M784.33,296 L784.33,327.5986 A5,5 0 0 0 789.33,332.5986 L937.33,332.5986 A5,5 0 0 0 942.33,327.5986 L942.33,301 L932.33,291 L789.33,291 A5,5 0 0 0 784.33,296 " fill="#FFFFFF" style="stroke:#000000;stroke-width:1.0;"/><path d="M932.33,291 L932.33,298.5 A2.5,2.5 0 0 0 934.83,301 L942.33,301 L932.33,291 " fill="#FFFFFF" style="stroke:#000000;stroke-width:1.0;"/><text fill="#000000" font-family="Verdana" font-size="13" lengthAdjust="spacing" textLength="97" x="790.33" y="309.0698">Multi-language</text><text fill="#000000" font-family="Verdana" font-size="13" lengthAdjust="spacing" textLength="137" x="790.33" y="324.8691">Response translation</text></g><g id="elem_GMN31"><path d="M563.83,296 L563.83,327.5986 A5,5 0 0 0 568.83,332.5986 L671.83,332.5986 A5,5 0 0 0 676.83,327.5986 L676.83,301 L666.83,291 L568.83,291 A5,5 0 0 0 563.83,296 " fill="#FFFFFF" style="stroke:#000000;stroke-width:1.0;"/><path d="M666.83,291 L666.83,298.5 A2.5,2.5 0 0 0 669.33,301 L676.83,301 L666.83,291 " fill="#FFFFFF" style="stroke:#000000;stroke-width:1.0;"/><text fill="#000000" font-family="Verdana" font-size="13" lengthAdjust="spacing" textLength="91" x="569.83" y="309.0698">Business logic</text><text fill="#000000" font-family="Verdana" font-size="13" lengthAdjust="spacing" textLength="92" x="569.83" y="324.8691">Tool interface</text></g><g id="elem_GMN35"><path d="M285.83,296 L285.83,327.5986 A5,5 0 0 0 290.83,332.5986 L413.83,332.5986 A5,5 0 0 0 418.83,327.5986 L418.83,301 L408.83,291 L290.83,291 A5,5 0 0 0 285.83,296 " fill="#FFFFFF" style="stroke:#000000;stroke-width:1.0;"/><path d="M408.83,291 L408.83,298.5 A2.5,2.5 0 0 0 411.33,301 L418.83,301 L408.83,291 " fill="#FFFFFF" style="stroke:#000000;stroke-width:1.0;"/><text fill="#000000" font-family="Verdana" font-size="13" lengthAdjust="spacing" textLength="112" x="291.83" y="309.0698">Data persistence</text><text fill="#000000" font-family="Verdana" font-size="13" lengthAdjust="spacing" textLength="98" x="291.83" y="324.8691">SQLite storage</text></g><g id="elem_GMN39"><path d="M2075.33,296 L2075.33,327.5986 A5,5 0 0 0 2080.33,332.5986 L2224.33,332.5986 A5,5 0 0 0 2229.33,327.5986 L2229.33,301 L2219.33,291 L2080.33,291 A5,5 0 0 0 2075.33,296 " fill="#FFFFFF" style="stroke:#000000;stroke-width:1.0;"/><path d="M2219.33,291 L2219.33,298.5 A2.5,2.5 0 0 0 2221.83,301 L2229.33,301 L2219.33,291 " fill="#FFFFFF" style="stroke:#000000;stroke-width:1.0;"/><text fill="#000000" font-family="Verdana" font-size="13" lengthAdjust="spacing" textLength="110" x="2081.33" y="309.0698">Reports, Ranking</text><text fill="#000000" font-family="Verdana" font-size="13" lengthAdjust="spacing" textLength="133" x="2081.33" y="324.8691">Reminders, Sessions</text></g><!--entity LLMProvider--><g id="elem_LLMProvider"><path d="M1128.902,459.0082 C1131.8411,452.7372 1136.5483,451.6449 1141.5553,456.6973 C1144.5131,448.88 1149.6326,448.7559 1154.6729,454.7141 C1159.0082,449.5706 1162.8296,449.6021 1166.9427,454.9734 C1169.8214,447.6494 1174.1167,446.0486 1179.9072,452.1647 C1183.4655,445.783 1188.7755,445.1438 1193.0239,451.4512 C1196.8037,446.1796 1202.8633,446.7912 1205.938,452.2962 C1211.4715,447.1424 1216.6368,447.7772 1220.4551,454.4091 C1224.8747,449.8421 1228.6729,449.8564 1231.9468,455.6765 C1235.8607,450.1457 1241.9986,451.5539 1244.7431,457.0353 C1249.7144,450.4527 1254.0631,450.0099 1258.651,457.4165 C1266.1171,460.0964 1266.4728,464.864 1260.9883,469.9576 C1267.9709,471.6513 1268.3352,476.2813 1264.046,481.0751 C1270.2718,485.3366 1269.6282,491.9439 1262.2194,494.3258 C1266.2731,499.703 1266.5297,504.0618 1259.2484,506.7224 C1255.4475,512.8445 1251.2228,513.9304 1246.4867,507.6876 C1243.1819,514.8131 1237.3654,513.6698 1233.288,508.5181 C1229.7587,516.5157 1224.354,516.3037 1219.459,509.8225 C1215.3281,515.194 1209.7485,515.0654 1205.8707,509.5078 C1202.9261,515.1341 1197.3817,516.3873 1193.8282,510.1245 C1189.4359,515.6073 1185.5796,516.4119 1181.2284,510.0807 C1176.6108,516.1253 1171.3643,516.1445 1168.0562,508.7931 C1163.3108,516.0378 1158.82,514.7011 1153.9171,508.9647 C1149.4628,514.7005 1143.6386,512.2047 1141.5898,506.3961 C1137.2485,512.1205 1130.4094,512.4289 1127.1862,505.157 C1121.2912,503.3056 1119.3373,498.8438 1124.1114,494.0411 C1118.0132,491.2667 1118.4869,487.0766 1122.4869,482.838 C1116.9661,478.4452 1117.1551,471.8808 1124.4344,469.334 C1120.6962,464.5288 1123.0548,459.666 1128.902,459.0082 " fill="#FFFFFF" style="stroke:#000000;stroke-width:1.0;"/><text fill="#000000" font-family="Verdana" font-size="14" lengthAdjust="spacing" textLength="89" x="1133.83" y="478.0752">LLM Provider</text><text fill="#000000" font-family="Verdana" font-size="14" lengthAdjust="spacing" textLength="117" x="1133.83" y="495.0898">(Gemini/OpenAI)</text></g><!--entity TranslateAPI--><g id="elem_TranslateAPI"><path d="M955.727,457.3745 C959.0888,450.8759 964.509,451.7035 967.9807,457.2628 C971.1523,451.3877 976.0483,450.3369 980.5824,455.7404 C983.1194,449.9473 988.0694,450.0443 991.869,454.3259 C994.2973,448.5125 999.379,446.5172 1003.778,452.3026 C1006.511,446.2293 1013.0134,445.5016 1017.0481,450.781 C1021.2372,446.1138 1025.8601,446.5497 1028.0165,452.8195 C1031.8188,447.685 1036.8905,448.2979 1039.3878,454.168 C1043.985,449.3277 1049.3261,449.9481 1052.2849,456.0918 C1056.1454,451.0922 1059.7459,450.8242 1063.5329,456.1717 C1069.1213,450.1839 1074.3364,452.125 1077.1841,459.0656 C1081.6819,461.2257 1082.5274,465.6477 1078.6356,469.0299 C1085.5646,471.3863 1086.5801,476.7484 1080.8315,481.3622 C1085.8273,485.8287 1087.1878,491.0708 1079.6726,494.4276 C1084.2726,500.0056 1082.6717,503.8917 1075.7777,505.3833 C1073.4944,511.7386 1068.2335,512.3242 1063.867,507.6286 C1060.0339,513.5039 1055.8322,514.1721 1051.6631,507.9681 C1049.3407,513.8138 1044.6311,513.393 1041.1944,509.121 C1038.7533,515.4567 1032.2546,517.422 1027.6742,511.476 C1024.8702,516.8205 1021.731,517.9448 1017.2357,513.2312 C1012.8143,519.1847 1007.0749,519.2259 1004.192,511.7382 C999.8358,515.3588 995.3234,514.1496 993.294,508.8845 C989.5137,514.1226 983.0809,514.9833 980.2272,507.9017 C976.2488,513.8486 970.3869,514.0487 967.5625,506.7946 C964.813,511.4573 959.9471,512.3973 957.2414,506.7507 C949.9789,503.6136 949.377,499.0619 954.2293,493.2265 C948.4274,491.9667 946.6,486.8767 951.1702,482.6242 C946.2167,476.6572 946.0478,472.2933 954.2566,469.3978 C949.8852,465.1409 948.6941,460.2367 955.727,457.3745 " fill="#FFFFFF" style="stroke:#000000;stroke-width:1.0;"/><text fill="#000000" font-family="Verdana" font-size="14" lengthAdjust="spacing" textLength="106" x="962.33" y="478.0752">Translation API</text><text fill="#000000" font-family="Verdana" font-size="14" lengthAdjust="spacing" textLength="106" x="962.33" y="495.0898">(Google Cloud)</text></g><!--entity VoiceAPI--><g id="elem_VoiceAPI"><path d="M1473.8771,458.4418 C1476.2631,452.2134 1481.234,451.2268 1485.9799,455.7968 C1490.671,448.652 1495.5902,447.3902 1500.8635,455.218 C1503.4602,449.2183 1507.8762,446.5891 1513.1664,452.4161 C1516.5099,445.9034 1521.2473,444.7614 1526.2364,450.687 C1532.5851,444.089 1537.2639,445.9353 1540.4498,453.7962 C1544.3497,448.5695 1548.2475,448.5906 1552.1595,453.7826 C1558.4996,449.0522 1563.3384,448.143 1566.6724,456.9948 C1571.6115,452.401 1576.2537,451.6815 1579.2709,459.0234 C1585.4134,461.2048 1586.2915,465.0616 1582.6264,470.1901 C1590.2012,470.6664 1592.2301,475.7308 1588.8332,481.9821 C1593.6435,488.7292 1590.0952,493.9007 1582.7332,494.9 C1587.6147,499.5519 1586.3333,504.2141 1580.3034,506.5999 C1576.4977,513.1217 1570.6265,512.6732 1566.282,507.2314 C1562.2734,513.5865 1557.4333,515.5149 1552.0192,508.7606 C1549.6821,514.7784 1543.9584,516.5996 1539.3565,511.2931 C1535.4912,517.8584 1529.7694,516.4786 1526.1129,511.0623 C1522.507,516.7418 1517.1265,515.7895 1514.2737,510.2665 C1509.9002,516.4687 1502.9339,517.6139 1499.3672,509.4304 C1494.7641,514.3952 1488.5698,514.0711 1486.6706,506.657 C1483.0383,512.4778 1476.3915,514.3142 1472.5157,506.9177 C1465.9598,503.1412 1465.6617,498.8755 1471.2268,493.899 C1465.6356,491.4718 1463.5825,486.5255 1468.7853,481.9017 C1463.8171,477.2915 1463.8538,473.4636 1470.1267,470.1349 C1465.2572,465.1934 1466.8861,459.5792 1473.8771,458.4418 " fill="#FFFFFF" style="stroke:#000000;stroke-width:1.0;"/><text fill="#000000" font-family="Verdana" font-size="14" lengthAdjust="spacing" textLength="92" x="1479.33" y="478.0752">Voice Service</text><text fill="#000000" font-family="Verdana" font-size="14" lengthAdjust="spacing" textLength="76" x="1479.33" y="495.0898">(ASR/TTS)</text></g><!--entity ImageAPI--><g id="elem_ImageAPI"><path d="M1311.143,458.3373 C1313.6151,453.9884 1317.3122,453.7829 1320.6126,457.3458 C1322.5878,451.8158 1327.4115,449.2738 1332.1393,454.356 C1335.6032,448.9436 1339.7342,448.0743 1344.2606,453.1251 C1347.2449,447.9308 1350.9117,447.4614 1354.6513,452.3464 C1357.1214,447.1193 1361.2244,446.2839 1365.4004,450.3795 C1370.2128,446.4742 1375.5589,447.5633 1377.5113,453.7961 C1381.2161,448.1158 1384.6777,447.1512 1389.0014,453.1892 C1392.4427,448.0351 1397.1233,449.5956 1399.3287,454.4629 C1403.3025,450.2579 1408.736,451.4876 1410.5362,456.976 C1415.2307,450.6878 1419.8149,451.3089 1423.0295,458.3619 C1429.5818,459.1918 1431.9407,465.1257 1427.9325,470.2948 C1434.5679,472.3683 1436.1237,477.9422 1431.6362,483.2063 C1435.1154,488.8934 1433.3119,493.5112 1426.4796,494.4831 C1430.9832,499.7334 1429.1269,505.2053 1422.4403,506.7798 C1419.8014,512.5069 1414.0997,513.5381 1410.3533,507.9643 C1406.9789,511.6079 1403.2633,511.9581 1400.8311,506.9297 C1398.9147,513.287 1393.6159,514.4014 1389.2071,509.5039 C1385.6478,514.7841 1380.1199,514.906 1377.1691,508.8574 C1375.0209,513.7038 1371.645,514.8517 1367.3693,511.3571 C1363.268,516.6242 1358.6734,516.8899 1355.2677,510.627 C1350.7535,516.1373 1346.0739,514.6721 1344.0019,508.3096 C1341.1478,513.593 1335.8978,512.3711 1333.328,507.9955 C1329.8924,513.8045 1324.3473,514.7223 1320.8672,508.0399 C1316.7547,511.5065 1313.2216,510.6945 1311.0078,505.8007 C1306.2844,502.4261 1305.2673,498.9698 1310.4396,495.0712 C1303.3638,491.3958 1303.0086,486.4476 1309.5996,481.9006 C1304.5576,478.1343 1304.6203,473.5505 1310.2095,470.3453 C1304.7542,466.1686 1305.5743,461.657 1311.143,458.3373 " fill="#FFFFFF" style="stroke:#000000;stroke-width:1.0;"/><text fill="#000000" font-family="Verdana" font-size="14" lengthAdjust="spacing" textLength="98" x="1316.33" y="478.0752">Image Service</text><text fill="#000000" font-family="Verdana" font-size="14" lengthAdjust="spacing" textLength="41" x="1316.33" y="495.0898">(VLM)</text></g><!--link Telegram to GMN7--><g id="link_Telegram_GMN7"><path d="M170.48,145 C408.67,145 1273.75,145 1527.75,145 " fill="none" id="Telegram-GMN7" style="stroke:#000000;stroke-width:1.0;stroke-dasharray:7.0,7.0;"/></g><!--link GMN7 to GMN11--><g id="link_GMN7_GMN11"><path d="M1600.33,166.15 C1600.33,198.19 1600.33,258.67 1600.33,290.76 " fill="none" id="GMN7-GMN11" style="stroke:#000000;stroke-width:1.0;stroke-dasharray:7.0,7.0;"/></g><!--link GMN11 to GMN15--><g id="link_GMN11_GMN15"><path d="M1668,323 C1705.92,323 1753.62,323 1794.3,323 " fill="none" id="GMN11-GMN15" style="stroke:#000000;stroke-width:1.0;stroke-dasharray:7.0,7.0;"/></g><!--link GMN15 to GMN19--><g id="link_GMN15_GMN19"><path d="M1881.33,333.2 C1881.33,334.32 1881.33,335 1881.33,335 C1881.33,335 1436.58,335 1436.58,335 C1436.58,335 1436.58,334.32 1436.58,333.2 " fill="none" id="GMN15-GMN19" style="stroke:#000000;stroke-width:1.0;stroke-dasharray:7.0,7.0;"/></g><!--link GMN19 to GMN23--><g id="link_GMN19_GMN23"><path d="M1290.66,323 C1256.49,323 1216.6,323 1183.61,323 " fill="none" id="GMN19-GMN23" style="stroke:#000000;stroke-width:1.0;stroke-dasharray:7.0,7.0;"/></g><!--link GMN23 to GMN27--><g id="link_GMN23_GMN27"><path d="M1049.2,301 C1016.41,301 976.73,301 942.47,301 " fill="none" id="GMN23-GMN27" style="stroke:#000000;stroke-width:1.0;stroke-dasharray:7.0,7.0;"/></g><!--link GMN27 to GMN31--><g id="link_GMN27_GMN31"><path d="M784.1,301 C749.2,301 708.98,301 677.14,301 " fill="none" id="GMN27-GMN31" style="stroke:#000000;stroke-width:1.0;stroke-dasharray:7.0,7.0;"/></g><!--link GMN31 to GMN35--><g id="link_GMN31_GMN35"><path d="M563.82,301 C521.59,301 463.71,301 419.18,301 " fill="none" id="GMN31-GMN35" style="stroke:#000000;stroke-width:1.0;stroke-dasharray:7.0,7.0;"/></g><!--link GMN35 to GMN39--><g id="link_GMN35_GMN39"><path d="M352.33,333.36 C352.33,341.11 352.33,348 352.33,348 C352.33,348 2152.33,348 2152.33,348 C2152.33,348 2152.33,341.11 2152.33,333.36 " fill="none" id="GMN35-GMN39" style="stroke:#000000;stroke-width:1.0;stroke-dasharray:7.0,7.0;"/></g><!--link User to Telegram--><g id="link_User_Telegram"><path d="M114.67,272.85 C114.67,240.65 114.67,202.05 114.67,174.94 " fill="none" id="User-to-Telegram" style="stroke:#000000;stroke-width:1.0;"/><polygon fill="#000000" points="114.67,168.94,110.67,177.94,114.67,173.94,118.67,177.94,114.67,168.94" style="stroke:#000000;stroke-width:1.0;"/><text fill="#000000" font-family="Verdana" font-size="13" lengthAdjust="spacing" textLength="64" x="118.67" y="234.9598">Messages</text><text fill="#000000" font-family="Verdana" font-size="13" lengthAdjust="spacing" textLength="70" x="115.67" y="250.7591">Commands</text><text fill="#000000" font-family="Verdana" font-size="13" lengthAdjust="spacing" textLength="36" x="132.67" y="266.5585">Voice</text><text fill="#000000" font-family="Verdana" font-size="13" lengthAdjust="spacing" textLength="47" x="127.17" y="282.3578">Images</text><text fill="#000000" font-family="Verdana" font-size="13" lengthAdjust="spacing" textLength="51" x="125.17" y="298.1571">Buttons</text></g><!--link Telegram to User--><g id="link_Telegram_User"><path d="M104,168.57 C104,195.64 104,234.45 104,266.79 " fill="none" id="Telegram-to-User" style="stroke:#000000;stroke-width:1.0;"/><polygon fill="#000000" points="104,272.79,108,263.79,104,267.79,100,263.79,104,272.79" style="stroke:#000000;stroke-width:1.0;"/><text fill="#000000" font-family="Verdana" font-size="13" lengthAdjust="spacing" textLength="91" x="12" y="217.7498">Bot messages</text></g><!--link Telegram to Bot--><g id="link_Telegram_Bot"><path d="M89,121.22 C89,109.57 89,98 89,98 C89,98 492.75,98 896.5,98 C1098.375,98 1300.25,98 1451.6563,98 C1461.1191,98 1470.3849,98 1479.4412,98 C1483.9693,98 1488.4451,98 1492.867,98 C1495.0779,98 1491.2753,98 1493.4591,98 " fill="none" id="Telegram-to-Bot" style="stroke:#000000;stroke-width:1.0;"/><polygon fill="#000000" points="1499.4591,98,1490.4591,94,1494.4591,98,1490.4591,102,1499.4591,98" style="stroke:#000000;stroke-width:1.0;"/><text fill="#000000" font-family="Verdana" font-size="13" lengthAdjust="spacing" textLength="54" x="853.12" y="95.0698">Updates</text></g><!--link Bot to Telegram--><g id="link_Bot_Telegram"><path d="M1497.0277,110 C1492.7208,110 1488.3615,110 1483.9511,110 C1475.1303,110 1466.1055,110 1456.8888,110 C1309.42,110 1112.795,110 916.17,110 C522.92,110 129.67,110 129.67,110 C129.67,110 129.67,109.13 129.67,115.46 " fill="none" id="Bot-to-Telegram" style="stroke:#000000;stroke-width:1.0;"/><polygon fill="#000000" points="129.67,121.46,133.67,112.46,129.67,116.46,125.67,112.46,129.67,121.46" style="stroke:#000000;stroke-width:1.0;"/><text fill="#000000" font-family="Verdana" font-size="13" lengthAdjust="spacing" textLength="124" x="803.51" y="124.0698">Response message</text></g><!--link Bot to Handlers--><g id="link_Bot_Handlers"><path d="M1704.83,190.3446 C1704.83,190.6338 1704.83,190.9238 1704.83,191.2145 C1704.83,191.796 1704.83,192.3805 1704.83,192.968 C1704.83,195.3176 1704.83,197.7133 1704.83,200.1455 C1704.83,205.0099 1704.83,210.0199 1704.83,215.0978 C1704.83,217.6368 1704.83,220.1927 1704.83,222.7559 C1704.83,224.0375 1704.83,225.3209 1704.83,226.6049 C1704.83,227.2469 1704.83,227.8891 1704.83,228.5312 C1704.83,228.8523 1704.83,229.1734 1704.83,229.4944 C1704.83,229.6549 1704.83,223.8155 1704.83,223.976 " fill="none" id="Bot-to-Handlers" style="stroke:#000000;stroke-width:1.0;"/><polygon fill="#000000" points="1704.83,229.976,1708.83,220.976,1704.83,224.976,1700.83,220.976,1704.83,229.976" style="stroke:#000000;stroke-width:1.0;"/><text fill="#000000" font-family="Verdana" font-size="13" lengthAdjust="spacing" textLength="118" x="1705.83" y="226.1398">Text/Voice/Image</text></g><!--link Handlers to Bot--><g id="link_Handlers_Bot"><path d="M1703.83,229.4181 C1703.83,229.1021 1703.83,228.7861 1703.83,228.47 C1703.83,218.3563 1703.83,208.2431 1703.83,198.7241 C1703.83,196.3444 1703.83,194.0018 1703.83,191.7056 C1703.83,191.4186 1703.83,191.1323 1703.83,190.8467 C1703.83,190.7039 1703.83,196.5613 1703.83,196.4189 " fill="none" id="Handlers-to-Bot" style="stroke:#000000;stroke-width:1.0;"/><polygon fill="#000000" points="1703.83,190.4189,1699.83,199.4189,1703.83,195.4189,1707.83,199.4189,1703.83,190.4189" style="stroke:#000000;stroke-width:1.0;"/><text fill="#000000" font-family="Verdana" font-size="13" lengthAdjust="spacing" textLength="132" x="1570.83" y="225.5698">Formatted response</text></g><!--link Bot to Callbacks--><g id="link_Bot_Callbacks"><path d="M1712.4318,145 C1712.5057,145 1712.58,145 1712.6546,145 C1712.8039,145 1712.9546,145 1713.1068,145 C1713.4113,145 1713.7216,145 1714.0373,145 C1714.6689,145 1715.3223,145 1715.995,145 C1721.3763,145 1727.985,145 1734.405,145 C1747.245,145 1759.33,145 1759.33,145 C1759.33,145 1759.33,184.1825 1759.33,224.5888 C1759.33,225.8514 1759.33,227.1153 1759.33,228.3793 C1759.33,228.6952 1759.33,223.0112 1759.33,223.3272 " fill="none" id="Bot-to-Callbacks" style="stroke:#000000;stroke-width:1.0;"/><polygon fill="#000000" points="1759.33,229.3272,1763.33,220.3272,1759.33,224.3272,1755.33,220.3272,1759.33,229.3272" style="stroke:#000000;stroke-width:1.0;"/><text fill="#000000" font-family="Verdana" font-size="13" lengthAdjust="spacing" textLength="85" x="1673.33" y="198.1398">Button clicks</text></g><!--link Handlers to LLM--><g id="link_Handlers_LLM"><path d="M1508.0657,284 C1507.2388,284 1506.4115,284 1505.5839,284 C1503.9286,284 1502.2722,284 1500.615,284 C1497.3005,284 1493.9827,284 1490.665,284 C1484.0295,284 1477.3941,284 1470.7845,284 C1470.3714,284 1475.9584,284 1475.5455,284 " fill="none" id="Handlers-to-LLM" style="stroke:#000000;stroke-width:1.0;"/><polygon fill="#000000" points="1469.5455,284,1478.5455,288,1474.5455,284,1478.5455,280,1469.5455,284" style="stroke:#000000;stroke-width:1.0;"/><text fill="#000000" font-family="Verdana" font-size="13" lengthAdjust="spacing" textLength="113" x="1365.29" y="281.0698">Process message</text></g><!--link LLM to Agent--><g id="link_LLM_Agent"><path d="M1247.3228,288 C1246.5902,288 1245.8117,288 1244.9891,288 C1238.4086,288 1229.0078,288 1217.7269,288 C1214.9066,288 1211.9689,288 1208.9283,288 C1208.5483,288 1208.1666,288 1207.7833,288 C1207.6875,288 1213.5916,288 1213.4956,288 " fill="none" id="LLM-to-Agent" style="stroke:#000000;stroke-width:1.0;"/><polygon fill="#000000" points="1207.4956,288,1216.4956,292,1212.4956,288,1216.4956,284,1207.4956,288" style="stroke:#000000;stroke-width:1.0;"/><text fill="#000000" font-family="Verdana" font-size="13" lengthAdjust="spacing" textLength="81" x="1052.84" y="285.0698">Agent graph</text></g><!--link Agent to LLM--><g id="link_Agent_LLM"><path d="M1207.7162,342 C1208.1,342 1208.4822,342 1208.8628,342 C1211.9076,342 1214.8495,342 1217.6738,342 C1228.9706,342 1238.3847,342 1244.9745,342 C1245.7983,342 1240.5779,342 1241.3115,342 " fill="none" id="Agent-to-LLM" style="stroke:#000000;stroke-width:1.0;"/><polygon fill="#000000" points="1247.3115,342,1238.3115,338,1242.3115,342,1238.3115,346,1247.3115,342" style="stroke:#000000;stroke-width:1.0;"/><text fill="#000000" font-family="Verdana" font-size="13" lengthAdjust="spacing" textLength="94" x="1039.83" y="356.0698">Final response</text></g><!--link Agent to LLMProvider--><g id="link_Agent_LLMProvider"><path d="M1140.33,357.2015 C1140.33,357.331 1140.33,357.4611 1140.33,357.5918 C1140.33,357.8532 1140.33,358.1168 1140.33,358.3827 C1140.33,358.9144 1140.33,359.4552 1140.33,360.0045 C1140.33,361.1031 1140.33,362.2362 1140.33,363.4009 C1140.33,368.0596 1140.33,373.2241 1140.33,378.7138 C1140.33,400.6725 1140.33,421.835 1140.33,442.65 " fill="none" id="Agent-to-LLMProvider" style="stroke:#000000;stroke-width:1.0;"/><polygon fill="#000000" points="1140.33,448.65,1144.33,439.65,1140.33,443.65,1136.33,439.65,1140.33,448.65" style="stroke:#000000;stroke-width:1.0;"/><text fill="#000000" font-family="Verdana" font-size="13" lengthAdjust="spacing" textLength="59" x="1118.88" y="354.0698">LLM calls</text></g><!--link LLMProvider to Agent--><g id="link_LLMProvider_Agent"><path d="M1161.83,448.99 C1161.83,426.35 1161.83,400 1161.83,400 C1161.83,400 991.33,400 991.33,400 C991.33,400 991.33,313 991.33,313 C991.33,313 996.7275,313 1002.2938,313 C1002.9895,313 1003.6879,313 1004.3788,313 C1004.7242,313 1005.0677,313 1005.4081,313 C1005.5783,313 1005.7477,313 1005.9161,313 C1006.0003,313 1006.0843,313 1006.168,313 C1006.2099,313 1000.2517,313 1000.2934,313 " fill="none" id="LLMProvider-to-Agent" style="stroke:#000000;stroke-width:1.0;"/><polygon fill="#000000" points="1006.2934,313,997.2934,309,1001.2934,313,997.2934,317,1006.2934,313" style="stroke:#000000;stroke-width:1.0;"/><text fill="#000000" font-family="Verdana" font-size="13" lengthAdjust="spacing" textLength="69" x="976.11" y="397.0698">Responses</text></g><!--link Agent to API--><g id="link_Agent_API"><path d="M1014,229.8599 C1014,229.7526 1014,229.6461 1014,229.5405 C1014,229.3292 1014,229.1211 1014,228.9164 C1014,227.2783 1014,225.8528 1014,224.68 C1014,222.3344 1014,221 1014,221 C1014,221 528.33,221 528.33,221 C528.33,221 528.33,222.2917 528.33,224.5674 C528.33,225.7052 528.33,227.089 528.33,228.6803 C528.33,229.0781 528.33,223.4889 528.33,223.9121 " fill="none" id="Agent-to-API" style="stroke:#000000;stroke-width:1.0;"/><polygon fill="#000000" points="528.33,229.9121,532.33,220.9121,528.33,224.9121,524.33,220.9121,528.33,229.9121" style="stroke:#000000;stroke-width:1.0;"/><text fill="#000000" font-family="Verdana" font-size="13" lengthAdjust="spacing" textLength="62" x="708.33" y="218.0698">Tool calls</text></g><!--link API to Agent--><g id="link_API_Agent"><path d="M702.6249,337 C704.3135,337 706.0058,337 707.7016,337 C721.2675,337 735.0488,337 748.83,337 C859.08,337 969.33,337 969.33,337 C969.33,337 969.33,312 969.33,312 C969.33,312 979.2175,312 989.7238,312 C994.9769,312 1000.3847,312 1004.7886,312 C1005.0638,312 1005.3352,312 1005.6023,312 C1005.7358,312 1005.8683,312 1005.9998,312 C1006.0655,312 1000.1309,312 1000.1961,312 " fill="none" id="API-to-Agent" style="stroke:#000000;stroke-width:1.0;"/><polygon fill="#000000" points="1006.1961,312,997.1961,308,1001.1961,312,997.1961,316,1006.1961,312" style="stroke:#000000;stroke-width:1.0;"/><text fill="#000000" font-family="Verdana" font-size="13" lengthAdjust="spacing" textLength="77" x="693.39" y="334.0698">Tool results</text></g><!--link API to Services--><g id="link_API_Services"><path d="M483.2943,312 C483.2137,312 483.1334,312 483.0535,312 C482.8936,312 482.735,312 482.5779,312 C481.9494,312 481.3433,312 480.7623,312 C476.115,312 473.08,312 473.08,312 C473.08,312 473.08,345 473.08,345 C473.08,345 2003.83,345 2003.83,345 C2003.83,345 2003.83,312 2003.83,312 C2003.83,312 2011.85,312 2020.3713,312 C2022.5016,312 2024.6632,312 2026.7387,312 C2027.7764,312 2028.7926,312 2029.7726,312 C2030.2626,312 2030.7436,312 2031.2136,312 C2031.4486,312 2031.6809,312 2031.9103,312 C2032.0249,312 2026.1389,312 2026.252,312 " fill="none" id="API-to-Services" style="stroke:#000000;stroke-width:1.0;"/><polygon fill="#000000" points="2032.252,312,2023.252,308,2027.252,312,2023.252,316,2032.252,312" style="stroke:#000000;stroke-width:1.0;"/><text fill="#000000" font-family="Verdana" font-size="13" lengthAdjust="spacing" textLength="91" x="1230.19" y="342.0698">Business logic</text></g><!--link Services to API--><g id="link_Services_API"><path d="M2032.2932,347 C2031.8133,347 2031.3126,347 2030.7912,347 C2028.7057,347 2026.2896,347 2023.5545,347 C2012.6139,347 1996.5678,347 1976.1454,347 C1935.3007,347 1876.9511,347 1806.9316,347 C1666.8925,347 1480.1738,347 1293.455,347 C1106.7363,347 920.0175,347 779.9784,347 C762.4736,347 745.698,347 729.7431,347 C721.7656,347 713.9932,347 706.4374,347 C705.4929,347 710.5518,347 709.6142,347 " fill="none" id="Services-to-API" style="stroke:#000000;stroke-width:1.0;"/><polygon fill="#000000" points="703.6142,347,712.6142,351,708.6142,347,712.6142,343,703.6142,347" style="stroke:#000000;stroke-width:1.0;"/><text fill="#000000" font-family="Verdana" font-size="13" lengthAdjust="spacing" textLength="47" x="1236.36" y="361.0698">Results</text></g><!--link Services to Repos--><g id="link_Services_Repos"><path d="M2029.9306,350 C2028.9601,350 2027.9661,350 2026.9488,350 C2022.8796,350 2018.4379,350 2013.6376,350 C2004.037,350 1993.0019,350 1980.6425,350 C1931.205,350 1860.58,350 1775.83,350 C1606.33,350 1380.33,350 1154.33,350 C928.33,350 702.33,350 532.83,350 C511.6425,350 491.3378,350 472.0263,350 C462.3705,350 458.9631,350 449.8177,350 " fill="none" id="Services-to-Repos" style="stroke:#000000;stroke-width:1.0;"/><polygon fill="#000000" points="443.8177,350,452.8177,354,448.8177,350,452.8177,346,443.8177,350" style="stroke:#000000;stroke-width:1.0;"/><text fill="#000000" font-family="Verdana" font-size="13" lengthAdjust="spacing" textLength="105" x="1110.82" y="364.0698">Data operations</text></g><!--link Repos to Services--><g id="link_Repos_Services"><path d="M448.694,277 C450.9894,277 453.3007,277 455.6279,277 C460.2822,277 464.9997,277 469.7787,277 C488.8944,277 508.9932,277 529.9659,277 C697.7475,277 921.4563,277 1145.165,277 C1368.8738,277 1592.5825,277 1760.3641,277 C1844.2548,277 1914.1638,277 1963.1001,277 C1987.5683,277 2006.7932,277 2019.9012,277 C2023.1782,277 2026.0728,277 2028.5715,277 C2029.8209,277 2024.9712,277 2026.0209,277 " fill="none" id="Repos-to-Services" style="stroke:#000000;stroke-width:1.0;"/><polygon fill="#000000" points="2032.0209,277,2023.0209,273,2027.0209,277,2023.0209,281,2032.0209,277" style="stroke:#000000;stroke-width:1.0;"/><text fill="#000000" font-family="Verdana" font-size="13" lengthAdjust="spacing" textLength="31" x="1146.17" y="274.0698">Data</text></g><!--link LLM to Translator--><g id="link_LLM_Translator"><path d="M1247.252,312 C1247.1389,312 1247.0249,312 1246.9103,312 C1246.6809,312 1246.4486,312 1246.2136,312 C1245.7436,312 1245.2626,312 1244.7726,312 C1243.7926,312 1242.7764,312 1241.7387,312 C1239.6632,312 1237.5016,312 1235.3713,312 C1226.85,312 1218.83,312 1218.83,312 C1218.83,312 1218.83,281 1218.83,281 C1218.83,281 1101.455,281 984.08,281 C980.412,281 976.7441,281 973.0797,281 C971.2475,281 975.4162,281 973.5862,281 " fill="none" id="LLM-to-Translator" style="stroke:#000000;stroke-width:1.0;"/><polygon fill="#000000" points="967.5862,281,976.5862,285,972.5862,281,976.5862,277,967.5862,281" style="stroke:#000000;stroke-width:1.0;"/><text fill="#000000" font-family="Verdana" font-size="13" lengthAdjust="spacing" textLength="109" x="892.51" y="278.0698">English response</text></g><!--link Translator to TranslateAPI--><g id="link_Translator_TranslateAPI"><path d="M749.33,357.0146 C749.33,357.6136 749.33,358.2163 749.33,358.8223 C749.33,363.6707 749.33,368.7381 749.33,373.9448 C749.33,384.3582 749.33,395.3284 749.33,406.2162 C749.33,449.7675 749.33,492 749.33,492 C749.33,492 862.37,492 941.18,492 " fill="none" id="Translator-to-TranslateAPI" style="stroke:#000000;stroke-width:1.0;"/><polygon fill="#000000" points="947.18,492,938.18,488,942.18,492,938.18,496,947.18,492" style="stroke:#000000;stroke-width:1.0;"/><text fill="#000000" font-family="Verdana" font-size="13" lengthAdjust="spacing" textLength="128" x="629.51" y="489.0698">Translation request</text></g><!--link TranslateAPI to Translator--><g id="link_TranslateAPI_Translator"><path d="M947.24,471 C873.82,471 767.33,471 767.33,471 C767.33,471 767.33,431.25 767.33,391.5 C767.33,381.5625 767.33,371.625 767.33,362.3086 C767.33,361.144 767.33,359.9892 767.33,358.8453 C767.33,358.2733 767.33,363.7041 767.33,363.1377 " fill="none" id="TranslateAPI-to-Translator" style="stroke:#000000;stroke-width:1.0;"/><polygon fill="#000000" points="767.33,357.1377,763.33,366.1377,767.33,362.1377,771.33,366.1377,767.33,357.1377" style="stroke:#000000;stroke-width:1.0;"/><text fill="#000000" font-family="Verdana" font-size="13" lengthAdjust="spacing" textLength="102" x="666.01" y="468.0698">Translated text</text></g><!--link Translator to Handlers--><g id="link_Translator_Handlers"><path d="M741.198,312 C741.084,312 740.9693,312 740.8538,312 C740.6229,312 740.389,312 740.1523,312 C739.679,312 739.1947,312 738.7013,312 C737.7146,312 736.6913,312 735.6464,312 C733.5566,312 731.38,312 729.235,312 C720.655,312 712.58,312 712.58,312 C712.58,312 712.58,343 712.58,343 C712.58,343 1731.83,343 1731.83,343 C1731.83,343 1731.83,313 1731.83,313 C1731.83,313 1725.145,313 1718.2513,313 C1716.5278,313 1714.7913,313 1713.143,313 C1712.7309,313 1712.3243,313 1711.9248,313 C1711.7251,313 1717.5271,313 1717.3311,313 " fill="none" id="Translator-to-Handlers" style="stroke:#000000;stroke-width:1.0;"/><polygon fill="#000000" points="1711.3311,313,1720.3311,317,1716.3311,313,1720.3311,309,1711.3311,313" style="stroke:#000000;stroke-width:1.0;"/><text fill="#000000" font-family="Verdana" font-size="13" lengthAdjust="spacing" textLength="124" x="1218.75" y="357.0698">Localized response</text></g><!--link Handlers to VoiceAPI--><g id="link_Handlers_VoiceAPI"><path d="M1703.33,357.6778 C1703.33,358.2531 1703.33,358.8315 1703.33,359.4128 C1703.33,360.5754 1703.33,361.7497 1703.33,362.9345 C1703.33,365.3042 1703.33,367.7158 1703.33,370.1602 C1703.33,379.9375 1703.33,390.2375 1703.33,400.46 C1703.33,441.35 1703.33,481 1703.33,481 C1703.33,481 1644.08,481 1592.59,481 " fill="none" id="Handlers-to-VoiceAPI" style="stroke:#000000;stroke-width:1.0;"/><polygon fill="#000000" points="1586.59,481,1595.59,485,1591.59,481,1595.59,477,1586.59,481" style="stroke:#000000;stroke-width:1.0;"/><text fill="#000000" font-family="Verdana" font-size="13" lengthAdjust="spacing" textLength="124" x="1704.33" y="436.1798">Voice transcription</text><text fill="#000000" font-family="Verdana" font-size="13" lengthAdjust="spacing" textLength="94" x="1719.33" y="451.9791">TTS synthesis</text></g><!--link Handlers to ImageAPI--><g id="link_Handlers_ImageAPI"><path d="M1506.7285,338 C1505.4852,338 1504.2434,338 1503.0034,338 C1500.5234,338 1498.0508,338 1495.5879,338 C1485.7365,338 1476.0414,338 1466.6591,338 C1447.8945,338 1430.3808,338 1415.3691,338 C1385.3456,338 1365.33,338 1365.33,338 C1365.33,338 1365.33,400.75 1365.33,442.91 " fill="none" id="Handlers-to-ImageAPI" style="stroke:#000000;stroke-width:1.0;"/><polygon fill="#000000" points="1365.33,448.91,1369.33,439.91,1365.33,443.91,1361.33,439.91,1365.33,448.91" style="stroke:#000000;stroke-width:1.0;"/><text fill="#000000" font-family="Verdana" font-size="13" lengthAdjust="spacing" textLength="92" x="1393.66" y="352.0698">Image parsing</text><text fill="#000000" font-family="Verdana" font-size="13" lengthAdjust="spacing" textLength="102" x="1388.66" y="367.8691">Text extraction</text></g><!--link Bot to Services--><g id="link_Bot_Services"><path d="M1712.9757,134 C1714.7598,134 1716.8106,134 1719.1075,134 C1728.295,134 1741.42,134 1757.17,134 C1788.67,134 1830.67,134 1872.67,134 C1956.67,134 2040.67,134 2040.67,134 C2040.67,134 2040.67,175.7625 2040.67,218.83 C2040.67,224.2134 2040.67,229.6173 2040.67,234.9625 C2040.67,237.6351 2040.67,240.293 2040.67,242.9264 C2040.67,244.2431 2040.67,239.5537 2040.67,240.8569 " fill="none" id="Bot-to-Services" style="stroke:#000000;stroke-width:1.0;"/><polygon fill="#000000" points="2040.67,246.8569,2044.67,237.8569,2040.67,241.8569,2036.67,237.8569,2040.67,246.8569" style="stroke:#000000;stroke-width:1.0;"/><text fill="#000000" font-family="Verdana" font-size="13" lengthAdjust="spacing" textLength="136" x="1819.15" y="115.0698">Scheduled reminders</text><text fill="#000000" font-family="Verdana" font-size="13" lengthAdjust="spacing" textLength="83" x="1845.65" y="130.8691">Daily reports</text></g><!--SRC=[VLR1Rjiu4BthAsPpQHTeDjsh3WiuQTeQiD7KTdio4D0IAxEXI2v9jV4M-VUT8KMAJcFxO4Zap9itmvb7_U7tlETW91EgSWz26MPP3utkZLPS-RK_I0wMDvwfJlB2nEf1jOssYblu-ssn8ONY_c0uQEltkgeCQnvOn-7Yzj5pgvY4kJA3TnVmgmByiSPh2rySj-6raNfeuMB39Uy8RdOtlm3c82rKJmNajVQmFZZF-uIMcHSGQBLLhp57XMJlTzh_PGv_1b3oZtxqKzfZhgBR-nfkbRS7C5eez5tnJc0Gws3FL2ln8VWyXV_dOPVSEIBtSJJ5q7rSka_UENwoEK5YfGVF7OpkYBHaYXx0UURv6GutJCeT5gaaqOnhlxD8rgTeH107ky5xhV241DfkrLpHKSC3F-mqioqTfD3gN6aMYsLYX8Iax1ENJ8KiNYPnisSUZDKD5aEeRgjc7M5gs-ovyvPHx3EXe_K7oymUGpDwoq7ZtijXxsBNNDu-ycR0HjsgZTOIU7Wz7t9ZcNAI1QVNFh_aiDF-YTZBGNfnYGIw0GbJ6ph4TXmIsFdu8tMQ89YrpFXGzJG6p8Xx5bUdGg3borIk1omwLXwaxaGp5W5dWzjlh3dNYIjkj1EOe-0kn0WB9wAyOvw1mTQaQLCDfhp-l12uxn00It0cpfhR7w8POwINKsE55AntRs35r4FefHNlXMeny1lqnVwQslZf9G6RWlqgDOkQzyxg7w8DbVv0eEBga-5gDi_jdGoEn6uwJpe3yjKQvHPkQF-uMpWQbBvVDJ99ZD1pjbvTRJRhw1GsdpdCUqfcSlYwM4RZi476cFEhADBmJUgVhY9nXilBVx88OszcJRhHVOzJZ4yX6kf27pUkWrouAkim8Q3Yrl35j9Y8ep19BV4wyNWK5IaosINXgZ7cexyAq5S1EPjasQBsB9I9OEae9h48QLHPRCaP3MewBB980bkH5sq6GQX7NUX8CwhuF7gcCwn3719MLnNB9KQQMLSWO8qnBPgWw4fZH-kfhPwFMvNxcQp208sped5OM5JTE5V7C6Hpx1n28oTKbYdkI3KmicclpBU6zuBwtex9K8NBdWtbJSMRP8rkqKuAjvyS2yqhRNaiIG5f-Ry3wdfLMlm6dpTRyDWbpz6d7bfehBJu3-tA5DQ6Ds9SpnVxKPUa-QdZKnJUnWf37545Dsjm1uNVKAXOnvvfcEhu1FXj5AyjQcUyFX0fN9V4uzFWqwmTWuHXUQzjpxmlkQS9cCOnNmsfbO-6ZkQt3XyxwLCYf8ytPpj81FwkTow3Jkqp6TYaZrlrZWbvm8KWeTN_]--></g></svg>